<?xml version="1.0" encoding="UTF-8"?>
<svg width="700pt" height="700pt" version="1.1" viewBox="0 -50 700 700" xmlns="http://www.w3.org/2000/svg" xmlns:xlink="http://www.w3.org/1999/xlink">
 <g>
  <path d="m131.64 504h436.8c3.0977 0 5.6016-2.5039 5.6016-5.6016 0-3.0977-2.5039-5.6016-5.6016-5.6016l-102.9 0.003906v-47.117c2.25 0.20703 5.2031 0.38672 8.6367 0.38672 12.086 0 29.812-2.2734 41.457-13.914 18.703-18.703 13.227-53.137 12.988-54.602-0.39062-2.3633-2.2383-4.2109-4.6016-4.6016-1.4688-0.24609-35.895-5.7188-54.602 12.988-1.4492 1.4492-2.7031 3.0117-3.875 4.6328v-54.719c2.25 0.20312 5.1953 0.38672 8.625 0.38672 12.086 0 29.824-2.2734 41.469-13.914 18.703-18.711 13.227-53.145 12.988-54.602-0.39062-2.3633-2.2383-4.2109-4.6016-4.6016-1.4609-0.24609-35.887-5.7188-54.602 12.988-1.4492 1.4453-2.7031 3.0117-3.875 4.625v-54.723c2.25 0.20703 5.2031 0.38672 8.6367 0.38672 12.086 0 29.812-2.2734 41.457-13.914 18.703-18.711 13.227-53.145 12.988-54.602-0.39062-2.3633-2.2383-4.2109-4.6016-4.6016-1.4688-0.24609-35.895-5.7188-54.602 12.988-1.4492 1.4492-2.7031 3.0117-3.875 4.6328l-0.011719-109.3c0-3.0977-2.5039-5.6016-5.6016-5.6016s-5.6016 2.5039-5.6016 5.6016v48.625c-1.2109-1.6875-2.5078-3.3203-4.0156-4.8281-18.711-18.711-53.137-13.234-54.602-12.988-2.3633 0.39062-4.2109 2.2383-4.6016 4.6016-0.24219 1.457-5.7188 35.891 12.992 54.602 11.637 11.641 29.371 13.914 41.457 13.914 3.5 0 6.5-0.19141 8.7656-0.39844v54.938c-1.2109-1.6875-2.5078-3.3203-4.0156-4.8281-18.703-18.711-53.137-13.238-54.602-12.988-2.3633 0.39062-4.2109 2.2383-4.6016 4.6016-0.24219 1.457-5.7188 35.891 12.992 54.602 11.641 11.641 29.379 13.914 41.461 13.914 3.4961 0 6.4961-0.19141 8.7578-0.39844v54.93c-1.2109-1.6875-2.5078-3.3203-4.0156-4.8281-18.711-18.711-53.137-13.238-54.602-12.988-2.3633 0.39062-4.2109 2.2383-4.6016 4.6016-0.24219 1.4609-5.7188 35.895 12.992 54.602 11.637 11.641 29.371 13.914 41.457 13.914 3.5 0 6.5-0.19141 8.7656-0.39844l0.003907 108h-208.12v-47.117c2.25 0.20312 5.2031 0.39062 8.6367 0.39062 12.086 0 29.82-2.2734 41.457-13.914 18.711-18.703 13.227-53.145 12.988-54.602-0.39062-2.3633-2.2383-4.2109-4.6016-4.6016-1.4727-0.24609-35.895-5.7188-54.602 12.988-1.4492 1.4492-2.7031 3.0195-3.875 4.6328v-54.719c2.25 0.20703 5.1953 0.38672 8.6289 0.38672 12.086 0 29.82-2.2734 41.461-13.914 18.711-18.711 13.227-53.145 12.988-54.602-0.39062-2.3633-2.2383-4.2109-4.6016-4.6016-1.4609-0.24609-35.887-5.7188-54.602 12.988-1.4492 1.4492-2.7031 3.0117-3.875 4.6328v-54.723c2.25 0.20312 5.2031 0.39062 8.6367 0.39062 12.086 0 29.82-2.2734 41.457-13.914 18.711-18.711 13.227-53.145 12.988-54.602-0.39062-2.3633-2.2383-4.2109-4.6016-4.6016-1.4727-0.24609-35.895-5.7188-54.602 12.988-1.4492 1.4492-2.7031 3.0195-3.875 4.6328l-0.007813-109.32c0-3.0977-2.5039-5.6016-5.6016-5.6016-3.0977 0-5.6016 2.5039-5.6016 5.6016v48.621c-1.2109-1.6875-2.5039-3.3164-4.0078-4.8203-18.715-18.703-53.137-13.238-54.602-12.988-2.3633 0.39063-4.2109 2.2383-4.6016 4.6016-0.24219 1.457-5.7188 35.891 12.988 54.602 11.641 11.641 29.371 13.914 41.457 13.914 3.5 0 6.5-0.19141 8.7656-0.39844v54.93c-1.2109-1.6875-2.5039-3.3164-4.0078-4.8203-18.711-18.711-53.145-13.238-54.602-12.988-2.3633 0.39062-4.2109 2.2383-4.6016 4.6016-0.24219 1.457-5.7188 35.891 12.988 54.602 11.648 11.641 29.383 13.914 41.469 13.914 3.4961 0 6.4922-0.19141 8.7539-0.39844v54.926c-1.2109-1.6875-2.5039-3.3164-4.0078-4.8203-18.715-18.711-53.137-13.238-54.602-12.988-2.3633 0.39062-4.2109 2.2383-4.6016 4.6016-0.24219 1.457-5.7188 35.895 12.988 54.602 11.641 11.641 29.371 13.914 41.457 13.914 3.5 0 6.5-0.19141 8.7656-0.39844l-0.011719 107.99h-103.35c-3.0977 0-5.6016 2.5039-5.6016 5.6016 0 3.0938 2.5039 5.5977 5.6016 5.5977zm345.69-110.14c11.344-11.34 31.938-11.047 40.711-10.32 0.73828 8.7656 1.0586 29.305-10.332 40.699-11.352 11.344-31.93 11.043-40.711 10.32-0.73438-8.7656-1.0625-29.305 10.332-40.699zm0-109.84c11.352-11.344 31.914-11.047 40.711-10.32 0.73828 8.7578 1.0586 29.301-10.332 40.699-11.344 11.336-31.898 11.031-40.707 10.32-0.71484-8.7773-1.0156-29.359 10.328-40.699zm0-109.84c11.344-11.34 31.938-11.055 40.711-10.32 0.73828 8.7656 1.0586 29.301-10.332 40.699-11.352 11.344-31.93 11.039-40.711 10.32-0.73438-8.7617-1.0625-29.305 10.332-40.699zm-24.602-20.168c-8.7656 0.71875-29.355 1.0195-40.699-10.328-11.344-11.344-11.055-31.93-10.328-40.711 8.7734-0.74609 29.309-1.0586 40.699 10.332 11.348 11.352 11.059 31.926 10.328 40.707zm0 109.84c-8.7656 0.73828-29.305 1.0586-40.699-10.332-11.344-11.344-11.055-31.922-10.328-40.707 8.7539-0.73437 29.355-1.0195 40.699 10.328 11.348 11.352 11.059 31.938 10.328 40.711zm0 109.83c-8.7656 0.71875-29.355 1.0195-40.699-10.328-11.344-11.344-11.055-31.93-10.328-40.711 8.7734-0.74609 29.309-1.0586 40.699 10.332 11.348 11.352 11.059 31.926 10.328 40.707zm-194.73 20.168c11.34-11.336 31.891-11.047 40.707-10.32 0.72266 8.7734 1.0234 29.355-10.328 40.699s-31.914 11.043-40.711 10.32c-0.73047-8.7656-1.0586-29.305 10.332-40.699zm0-109.84c11.352-11.344 31.922-11.047 40.711-10.32 0.73828 8.7578 1.0625 29.301-10.332 40.699-11.344 11.34-31.941 11.043-40.711 10.32-0.73047-8.7656-1.0586-29.309 10.332-40.699zm0-109.84c11.344-11.34 31.93-11.055 40.711-10.32 0.73828 8.7578 1.0625 29.301-10.332 40.699-11.344 11.34-31.914 11.039-40.711 10.32-0.73047-8.7617-1.0586-29.305 10.332-40.699zm-24.598-20.16c-8.7578 0.75-29.301 1.0625-40.699-10.332-11.344-11.344-11.047-31.93-10.32-40.711 8.7461-0.73828 29.305-1.0586 40.699 10.332 11.344 11.348 11.047 31.941 10.32 40.711zm0 109.84c-8.7734 0.73828-29.305 1.0586-40.699-10.332-11.344-11.352-11.047-31.938-10.32-40.711 8.7695-0.73828 29.305-1.0586 40.699 10.332 11.344 11.352 11.047 31.938 10.32 40.711zm0 109.84c-8.7695 0.74609-29.305 1.0586-40.699-10.332-11.344-11.344-11.047-31.93-10.32-40.711 8.7461-0.74609 29.305-1.0586 40.699 10.332 11.344 11.348 11.047 31.941 10.32 40.711z"/>
 </g>
</svg>
