<?xml version="1.0" encoding="UTF-8"?>
<svg width="700pt" height="700pt" version="1.1" viewBox="0 -50 700 700" xmlns="http://www.w3.org/2000/svg">
 <g>
  <path d="m500.15 439.59c0.96094 3.9219 4.4727 6.6797 8.5117 6.6836 0.69531-0.003906 1.3906-0.085938 2.0664-0.23828l19.398-4.7148c4.6953-1.1641 7.5586-5.9141 6.3945-10.605-1.1562-4.6641-5.8555-7.5273-10.531-6.4141l-19.398 4.7148c-4.6914 1.1445-7.5742 5.875-6.4414 10.574z"/>
  <path d="m508.7 391.35-19.398 4.7188c-4.6992 1.1406-7.582 5.8711-6.4453 10.57 0.95313 3.9297 4.4688 6.6953 8.5117 6.6914 0.69531-0.003906 1.3906-0.085937 2.0664-0.23828l19.398-4.7148c4.6992-1.1484 7.5781-5.8867 6.4297-10.586-1.1406-4.6953-5.8672-7.5742-10.562-6.4414z"/>
  <path d="m174.95 417.85v28.477c0 4.832 3.918 8.75 8.75 8.75s8.75-3.918 8.75-8.75v-26.547c3.6992 0.1875 7.3398 0.29688 10.816 0.29688h0.99219c2.0078-0.007813 3.7344-0.28125 5.6562-0.37109v26.621c0 4.832 3.918 8.75 8.75 8.75 4.832 0 8.75-3.918 8.75-8.75v-28.793c33.23-6.9922 58.418-34.207 62.824-67.879l60.266 21.949c0.97266 39.438 2.1055 73.547 3.9727 91.574 0.44922 4.457 4.1992 7.8555 8.6836 7.8633 0.30859 0 0.61719-0.015624 0.92188-0.050781 4.8008-0.49609 8.2891-4.7891 7.793-9.5898v-0.011719c-1.7227-16.723-2.8398-49.625-3.7773-86.371 7.3789-1.1211 25.48-3.9219 48.254-7.7539 25.254 52.211 74.574 135.09 75.082 135.94 1.2109 2.0273 3.1875 3.4844 5.4844 4.0312 0.5625 0.14844 1.1445 0.22266 1.7266 0.22266 4.3242 0 18.184-3.332 90.508-28.727 4.5547-1.5938 6.9531-6.5781 5.3555-11.129-0.14844-0.42187-0.32812-0.83203-0.53906-1.2266 0 0-25.496-48.16-47.598-89.441 0.015625-0.21094 0.12109-0.39062 0.12109-0.60547l0.007812-215.45c3.1016 3.1211 6.1758 6.25 8.9375 9.3789 3.1992 3.625 8.7305 3.9688 12.355 0.76953s3.9688-8.7305 0.76953-12.355c-31.238-33.57-68.516-60.965-109.89-80.75-1.9375-0.89844-3.9766-1.5625-6.0742-1.9766-51.77-13.52-104.88-21.273-158.35-23.125-12.082 2.9219-116.2 123.64-117.2 124.86-3.1055 3.6992-2.625 9.2148 1.0781 12.32 3.6992 3.1055 9.2148 2.625 12.32-1.0781 2.2344-2.6641 4.8828-5.7656 7.6992-9.0391-1.0156 22.047-1.2969 58.594-0.82813 109.32 0.003907 0.15625 0.082032 0.28516 0.09375 0.4375-20.734 8.2383-59.926 16.125-78.551 2.7227-3.9258-2.8203-9.3945-1.9219-12.215 2.0039-1.0703 1.4805-1.6445 3.2617-1.6484 5.0859-0.066406 47.73 8.8359 78.871 27.992 97.992 11.535 10.984 26.195 18.113 41.957 20.398zm118.12-85.777c0.13672-1.293 0.22266-2.5234 0.33203-3.7891 7.7695-1.2852 19.207-4.1562 21.324-10.281 1.375-3.9414 2.6484-8.5352-21.07-26.301-0.85156-5-2.5312-9.8242-4.9648-14.273 2.9062-3.3047 4.3008-7.668 3.8516-12.047-0.84375-7.2852-6.1211-13.281-13.246-15.039-4-0.89453-8.1914-0.11328-11.598 2.1602-0.93359-1.4023-2.082-2.6523-3.4062-3.6992-5.8203-4.5938-13.883-5.082-20.219-1.2305-3.9453 2.5391-6.4805 6.7773-6.8438 11.457-8.8633 3.4336-16.637 9.1875-22.508 16.664-0.35156-51.52 0.16406-87.383 1.5078-104.87 23.328 5.7852 42.816 10.992 62.043 16.164 18.578 4.9922 37.352 10.02 59.508 15.555-3.8984 4.7656-7.4766 9.1641-10.512 12.938-3.0273 3.7656-2.4297 9.2773 1.3398 12.305 3.7656 3.0273 9.2695 2.4297 12.301-1.332 1.5352-1.9102 3.543-4.3633 5.3125-6.543 1.4688 28.551 2.4102 70.02 3.332 110.59 0.16797 7.5273 0.33594 14.973 0.50391 22.328zm73.973-1.9727c-1.1328-50.773-2.3242-102.93-4.5664-130.02 10.23-12.395 21.727-26.234 33.363-40.246 20.609-24.781 41.188-49.527 54.773-66.324 0.27344 0.12109 0.61328 0.25781 1.0234 0.44531 27.918 13.426 53.93 30.492 77.367 50.75v182.44c-7.9766 2.0117-16.754 4.0469-26.129 6.0625v-60.461c0.003906-2.457-1.0273-4.8008-2.8359-6.4609-1.832-1.6211-4.2422-2.4375-6.6836-2.2578l-53.355 4.7148c-4.5156 0.40234-7.9805 4.1836-7.9805 8.7148v69.32c-28.672 5.0117-53.547 8.9258-64.348 10.59-0.21484-9.0469-0.42188-18.164-0.62891-27.27zm118.33 6.7344c-11.789 2.3672-23.945 4.6758-35.855 6.8359v-58.191l35.855-3.1797zm17.93 152.07c-10.914-18.512-47.398-80.949-68.98-124.71 25.031-4.3672 52.938-9.5898 77.254-14.953 17.848 32.852 50.059 93.5 62.188 116.34-29.02 10.098-58.703 20.008-70.461 23.324zm-204.21-418.91c44.809 2.6367 89.352 8.7188 133.23 18.195-12.691 15.641-31.121 37.84-49.93 60.469-11.203 13.469-22.32 26.848-32.273 38.898-25.723-6.3086-46.602-11.891-67.293-17.469-19.207-5.168-38.688-10.375-61.949-16.152 30.57-34.438 68.855-76.094 78.223-83.941zm-94.641 235.7c9.0156-4.0156 16.91-10.184 22.984-17.961 5.6016-8.7109 15.277-13.949 25.633-13.879h0.33984c13.312 0.26562 23.891 11.277 23.625 24.59-0.011719 0.67969-0.054688 1.3594-0.12891 2.0352 0 71.367-21.754 101.91-72.719 102.09h-0.76953c-20.93 2.3008-41.891-4.0234-58.055-17.516-13.656-13.621-21.09-37.102-22.574-71.52 27.391 5.7578 55.879 3.0195 81.664-7.8438z"/>
  <path d="m246.69 305.11c1.6055 0.74609 3.3594 1.1211 5.1289 1.0938 1.0195 0.019531 2.0352-0.125 3.0078-0.42578 4.5781-1.5547 7.0273-6.5234 5.4727-11.102-0.86328-2.543-2.8516-4.5508-5.3867-5.4414-4-2.7109-9.4414-1.668-12.152 2.332-1.4492 2.1367-1.8789 4.8047-1.1758 7.2891 0.91406 2.6211 2.7227 4.832 5.1055 6.2539z"/>
 </g>
</svg>
