<?xml version="1.0" encoding="UTF-8"?>
<svg width="700pt" height="700pt" version="1.1" viewBox="0 -50 700 700" xmlns="http://www.w3.org/2000/svg" xmlns:xlink="http://www.w3.org/1999/xlink">
 <g>
  <path d="m369.6 173.6c1.6797-6.7188 2.2383-14 4.4805-21.281 4.4805-14 24.078-25.199 38.641-23.52 10.078 1.1211 19.039 5.6016 28 8.9609 11.762 4.4805 23.52 8.9609 35.281 14.559 14.559 6.7188 30.238 7.8398 45.922 6.7188 2.2383 0 4.4805-1.6797 5.6016 1.1211 1.1211 2.2383-0.55859 3.9219-1.6797 5.6016-7.8398 7.2812-16.238 12.32-26.32 15.121-12.32 2.8008-25.199 4.4805-37.52 2.8008-13.441-1.6797-25.199 7.2812-25.199 19.039 0 3.3594-0.55859 7.2812 5.6016 6.7188 2.8008-0.55859 5.0391 1.1211 6.1602 3.3594 3.9219 6.7188 10.641 8.9609 16.801 12.32 5.0391 2.8008 9.5195 6.7188 11.199 12.32 2.2383 6.1602 6.7188 8.9609 12.32 10.641 21.281 7.2812 39.199 20.719 53.199 37.52 14 16.238 27.441 33.039 34.16 54.32 0.55859 1.1211 1.1211 1.6797 1.1211 2.8008 2.8008 8.9609 7.2812 14.559 17.922 15.121 4.4805 0 8.9609 2.8008 13.441 3.3594 8.3984 1.1211 10.641 6.7188 11.199 14 0.55859 6.1602 0.55859 12.879 1.6797 19.039 1.1211 3.9219-3.3594 11.762-6.7188 13.441-2.8008 1.1211-5.6016 0-7.8398-1.6797-8.3984-6.1602-16.801-11.762-25.199-17.922-1.1211-0.55859-1.1211-1.6797-2.2383-2.2383-7.2812-3.3594-12.32-8.9609-22.398-2.2383-18.48 11.762-40.32 14-61.602 15.68-21.84 2.2383-43.121-0.55859-64.398-4.4805 0.55859 1.6797 0 2.8008 0.55859 3.3594 12.879 16.238 15.68 36.398 23.52 54.32 0.55859 1.6797 0.55859 3.3594 0.55859 5.0391 0 1.1211-0.55859 2.8008-2.2383 2.8008-1.1211 0-1.6797-0.55859-2.2383-1.6797-7.8398-14.559-20.16-22.398-34.16-30.238-20.16-11.762-43.121-15.121-64.961-22.398-8.9609-3.3594-18.48-4.4805-27.441-7.2812-16.801-5.0391-28.559-16.238-36.398-31.922-2.2383-3.9219-1.1211-8.3984-1.1211-12.32 0-3.3594 0-5.6016-3.3594-6.7188-25.762-11.199-50.398-25.762-78.398-32.48-2.2383-0.55859-5.0391-1.1211-7.2812-1.1211-1.1211 0-1.6797 0.55859-3.3594 1.1211 0 12.32 2.2383 24.641 3.9219 36.961 0.55859 3.3594 1.1211 6.1602 1.6797 9.5195 0.55859 2.2383 1.1211 4.4805-1.1211 5.6016-2.2383 1.1211-2.8008-1.1211-4.4805-2.2383-12.32-6.7188-22.398-15.68-31.359-26.879-6.7188-8.9609-10.078-18.48-8.3984-29.68 2.2383-15.68 12.879-24.641 26.32-30.238 6.7188-2.8008 14-3.9219 20.719-6.1602 0.55859-2.2383-0.55859-2.2383-1.6797-2.2383-8.3984 0-6.1602-10.078-10.078-11.199-5.0391-1.6797-11.199 0.55859-14-5.6016-1.6797-4.4805-4.4805-5.6016-8.9609-6.1602-2.2383 0-5.0391 0-5.6016-1.6797-2.8203-10.094-12.34-10.094-17.379-15.691-1.1211-1.6797-3.3594-2.8008-5.6016-2.8008-5.0391-0.55859-8.9609-2.8008-10.078-7.8398-0.55859-1.1211-1.1211-2.8008-2.2383-3.3594-11.199-7.8398-18.48-19.039-27.441-29.121-2.2383-2.2383-3.9219-5.0391-6.1602-7.2812-1.6797-1.6797-3.9219-3.9219-3.3594-6.1602 1.1211-5.0391-0.55859-8.9609-3.3594-12.32-2.2383-2.8008-2.8008-7.2812-0.55859-10.078 2.8008-4.4805 1.6797-7.2812 0-11.762-3.9219-10.078-2.8008-12.879 7.8398-16.238 1.6797-0.55859 3.9219-0.55859 4.4805-2.2383 1.6797-8.3984 10.641-8.3984 15.68-12.879 2.8008-2.2383 7.2812-2.8008 10.078-1.1211 6.1602 2.8008 12.32 1.1211 17.359-1.1211 5.6016-2.8008 8.3984-0.55859 12.32 2.2383 3.9219 3.3594 7.8398 5.6016 12.879 1.1211 2.2383-1.6797 5.6016-2.8008 8.9609-1.1211 5.0391 2.2383 11.199 1.6797 15.68 3.9219 7.8398 3.3594 15.121 4.4805 22.961 4.4805 1.1211 0 2.2383 0 3.3594 0.55859 8.3984 6.1602 19.602 5.6016 28 11.762 2.8008 2.2383 5.0391 3.9219 8.9609 2.2383 6.1602-2.2383 10.078 0 13.441 5.0391 2.8008 3.9219 5.6016 6.7188 11.199 4.4805 5.6016-2.2383 10.641 1.1211 12.32 5.6016 2.8008 5.0391 5.6016 5.6016 10.078 4.4805 2.8008-0.55859 5.6016 0.55859 8.3984 1.6797 8.3984 4.4805 18.48 5.6016 27.441 7.8398 8.3984 2.8008 16.238 7.2812 25.199 8.3984 1.1211 0 2.2383 2.2383 3.9219 3.3594-0.5625 1.1211-0.003907 2.8008 3.3594 2.2422zm-57.121 41.438c4.4805 10.641 4.4805 10.641 18.48 7.8398-1.6797-2.2383-0.55859-7.2812-5.0391-6.1602-5.043 1.1211-8.9609-1.1172-13.441-1.6797-5.0391-8.9609-7.2812-10.641-16.801-7.8398-1.6797 0.55859-2.8008 1.1211-2.2383 2.8008 0 1.6797 1.6797 2.8008 2.8008 2.2383 5.5977-0.55859 10.637 3.3633 16.238 2.8008zm139.44-62.16c4.4805-0.55859 6.7188 3.3594 9.5195 5.6016 1.6797 1.1211 2.8008 2.8008 5.0391 3.3594 6.7188 0.55859 13.441 1.1211 21.84 2.2383-10.078-5.0391-18.48-7.8398-26.879-11.199-3.3633-1.1172-6.7227-2.8008-9.5195 0 0-1.1211 0.55859-2.8008 0-2.8008-16.238-8.3984-33.039-15.121-52.078-11.762-12.32 2.2383-22.398 12.32-21.84 24.641 0 6.1602-3.9219 14.559 5.0391 18.48 1.1211 3.3594 2.2383 6.1602 6.1602 5.0391 3.3594-1.1211 6.1602 0.55859 8.3984 2.8008 1.6797 1.6797 2.8008 4.4805 5.6016 3.3594 7.2812-15.68 16.801-28 34.719-31.922-12.879-1.6797-23.52 0-31.359 11.199-2.8008 3.9219-6.7188 6.7188-12.879 6.7188 15.121-20.719 21.84-25.762 46.48-24.078-3.9219-4.4805-9.5195-5.0391-14-6.7188-6.7188-1.6797-14.559-2.2383-20.719 1.1211-7.8398 4.4805-15.68 11.199-16.238 21.84 0 3.3594-1.1211 6.7188-4.4805 8.9609v-3.3594c-1.6797-12.879 5.0391-21.84 13.441-29.68 7.2812-6.7188 17.922-8.9609 26.879-5.6016 8.9531 3.9219 17.914 6.7227 26.875 11.762zm114.8 210.56c-6.7188-6.7188-14-7.2812-21.84-7.2812-3.3594 0-6.1602-0.55859-9.5195-1.1211-10.641-2.2383-21.281-4.4805-31.922-7.2812-19.039-5.0391-39.199-5.0391-58.801-8.3984-12.32-2.2383-24.078-3.9219-36.961-3.9219-7.2812 0-15.121 1.1211-22.961-2.2383 7.8398-1.1211 16.238 0 23.52-2.8008 1.6797-0.55859 3.3594 0.55859 5.0391 0.55859 14.559 2.2383 29.121 5.0391 44.238 6.1602 22.961 1.1211 45.359 5.6016 67.762 11.762 5.6016 1.6797 11.762 3.9219 17.922 2.2383-1.1211-3.3594-3.3594-3.3594-5.0391-4.4805-19.602-7.8398-38.078-16.801-57.68-23.52-27.441-9.5195-56-10.641-84.559-10.641-14 0-28 2.2383-42-0.55859-2.2383-0.55859-5.0391 0-7.2812 0-7.8398 1.1211-8.9609 2.8008-3.9219 8.9609 8.9609 12.32 20.719 21.281 33.039 29.121 13.441 8.9609 28 16.801 39.199 29.121 5.6016 6.1602 12.32 8.9609 20.16 11.199 7.8398 2.2383 16.238 1.1211 24.078 2.2383 15.68 2.2383 30.801 2.8008 46.48-2.2383 4.4805-1.1211 8.9609-1.6797 13.441-2.2383 6.7188 0 12.879-2.2383 19.602-4.4805 12.879-4.4805 22.398-14.559 34.16-20.719 1.6797-0.55859 2.8008-2.8008 2.8008-3.9219 0-1.6797-0.55859-4.4805-2.8008-5.6016-2.8008-1.1211-3.9219 0.55859-4.4805 2.8008 0.003907 2.2383-0.55469 3.918-1.6758 7.2812zm-4.4805-19.043c-2.2383-2.8008-2.8008-3.9219-3.3594-5.0391-11.762-12.879-24.641-24.078-36.961-36.961-6.1602-6.7188-14-12.879-22.398-17.359-15.121-7.2812-31.922-12.32-48.16-15.68-30.238-6.7188-61.039-1.1211-91.281 2.2383-3.3594 0.55859-6.7188 1.1211-10.078 1.1211-6.7188 0-13.441 2.2383-17.922 7.8398-1.6797 2.2383-3.3594 4.4805-1.6797 6.7188 1.6797 2.2383 3.9219 0.55859 5.6016 0 7.2812-3.3594 14.559-5.0391 22.398-6.7188 1.6797-0.55859 5.0391-1.1211 5.0391 1.6797 0 6.1602 4.4805 3.9219 6.7188 3.3594 19.602-2.8008 39.199-1.1211 58.801 2.8008 27.441 5.6016 53.762 14.559 79.52 25.762 14 6.1602 26.879 16.238 39.762 24.641 3.9219 1.6797 7.2812 4.4805 14 5.5977zm-201.04 57.68c-2.8008-6.7188-8.3984-5.0391-11.762-8.9609-6.7188-8.3984-14.559-15.68-21.84-23.52-9.5195-10.641-17.359-22.961-22.398-36.961-1.1211-2.8008-2.2383-6.1602 2.2383-7.8398 2.8008 8.3984 6.1602 16.801 10.641 24.641 14 22.961 33.602 39.762 54.879 55.441 3.9219 2.8008 7.8398 5.0391 12.32 5.6016 15.121 2.2383 28 9.5195 40.879 17.359 2.2383 1.1211 3.9219 3.9219 7.8398 1.6797-11.762-16.238-27.441-27.441-44.238-36.398-24.641-12.879-43.121-31.922-58.801-53.762-7.8398-11.199-14-23.52-21.281-37.52-3.3594 12.32-7.2812 22.961-11.762 33.602-1.1211 2.2383 0 3.9219 0.55859 6.1602 3.9219 15.121 11.199 28 21.84 39.762 2.2383 2.2383 5.6016 4.4805 6.1602 10.641-14.559-11.199-22.398-24.078-29.68-39.199-3.9219 6.1602-1.6797 11.199 0.55859 15.68 2.8008 5.0391 5.6016 9.5195 9.5195 14 2.2383 2.8008 5.6016 5.6016 8.9609 7.2812 14.008 4.4727 29.129 8.3945 45.367 12.312zm-31.359-127.68c9.5195-3.3594 17.922-5.0391 25.199-8.3984 7.8398-3.9219 15.121-1.1211 22.398-1.1211 5.0391 0 9.5195-2.2383 14.559-2.2383 25.762-1.1211 51.52-2.2383 76.719 6.7188 1.1211 0.55859 2.8008 1.1211 3.9219 1.1211 22.398 4.4805 40.879 15.121 56.559 31.359 12.32 12.879 25.199 25.199 37.52 37.52 0-3.9219-1.1211-7.2812-2.2383-10.641-13.441-29.121-34.719-50.398-61.039-67.199-19.602-12.879-42-14-64.398-15.121-12.879-1.1211-26.32 0.55859-39.199 1.6797-17.922 1.6797-36.398 4.4805-54.32 9.5195-9.5195 1.6836-12.32 7.8438-15.68 16.801zm203.28 62.723c0-0.55859 0.55859-1.6797 0.55859-2.2383-10.641-6.1602-20.719-13.441-31.922-18.48-30.238-13.441-62.16-21.281-94.078-28-2.2383-0.55859-4.4805-0.55859-6.1602-0.55859-18.48 1.1211-36.961 1.1211-55.441 0-5.6016 0-8.9609 2.8008-12.32 6.7188-3.3594 3.9219-0.55859 7.2812 1.1211 10.641 1.1211 3.9219 4.4805 3.9219 7.8398 3.3594 9.5195-2.2383 19.602-2.2383 29.68-2.2383 5.6016 0 10.641 2.8008 16.801 2.2383 10.641-0.55859 21.84 0 32.48 0 32.48-0.55859 62.719 7.2812 92.398 21.281 5.6016 3.3555 11.762 6.1562 19.043 7.2773zm-99.121 80.641c-2.8008-12.32-6.7188-17.922-14-26.32-11.762-13.441-28-21.281-42.559-31.359-14-9.5195-28.559-18.48-36.961-34.16-1.1211-1.6797-2.2383-3.9219-3.9219-5.0391-6.1602-5.0391-7.2812-11.762-8.9609-18.48-2.2383-10.078-2.8008-20.16-3.3594-30.238-3.3594 5.0391-6.1602 9.5195-8.3984 14.559-2.2383 4.4805-2.2383 8.3984-0.55859 12.879 4.4805 15.121 12.879 28.559 22.961 40.32 3.9219 5.0391 8.3984 9.5195 12.32 14.559 7.2812 9.5195 15.68 17.359 25.762 23.52 19.598 11.199 38.074 25.199 57.676 39.762zm-273.28-101.36c3.9219-2.8008 8.3984-4.4805 11.199-8.3984 5.0391-6.1602 12.32-8.9609 19.602-8.9609 14 0 27.441 1.6797 39.762 8.9609 6.7188 3.9219 12.879 7.2812 20.16 8.9609 6.7188 2.2383 13.441 5.0391 19.039 8.9609 4.4805 3.3594 10.078 5.0391 15.121 7.2812 1.6797 0.55859 3.3594 1.6797 5.0391 0 2.8008-2.8008 6.1602-7.8398 4.4805-10.078-2.8008-3.9219-4.4805-10.641-8.3984-11.199-10.641-1.6797-19.039-6.7188-25.199-15.121-8.3984 5.0391-8.3984 5.0391-12.32-2.2383-1.6797-2.8008-2.8008-5.6016-6.7188-5.0391-5.6016 0.55859-7.2812-5.0391-10.641-7.2812-3.3594-1.6797-8.9609 1.1211-12.32-3.3594-2.2383-3.3594-4.4805-4.4805-8.9609-3.3594-3.3594 1.1211-7.2812 0-10.641 0.55859-14.559 1.1211-26.32 7.2812-35.281 18.48 2.8008 1.6797 4.4805 0 6.1602-1.1211 16.801-6.7188 34.16-9.5195 51.52-2.2383 15.68 6.1602 31.359 12.879 47.039 19.602 5.0391 2.2383 18.48 12.879 21.281 16.238-6.1602 0-10.641-3.3594-14.559-6.1602-6.7188-5.0391-14-8.3984-21.281-11.762-10.641-4.4805-21.84-8.3984-32.48-12.879-20.719-8.9609-40.32-3.3594-58.801 6.7188-3.3594 3.3555-5.0391 7.2734-2.8008 13.434zm250.32-123.2c5.0391-4.4805 9.5195-8.9609 14-12.879 1.1211-1.1211 2.2383-1.6797 3.9219-0.55859 1.1211 1.1211 0.55859 2.8008-0.55859 3.9219-1.6797 2.8008-4.4805 3.9219-7.2812 6.1602-2.8008 2.2383-6.1602 4.4805-5.0391 8.3984 1.1211 3.9219 5.6016 0.55859 8.3984 1.6797 3.9219 1.6797 5.0391-2.2383 6.1602-4.4805 1.6797-3.3594 2.2383-7.2812 3.3594-11.199 1.1211-6.1602 4.4805-9.5195 10.641-10.641 4.4805-1.1211 9.5195-2.8008 14.559-0.55859 3.3594 1.6797 7.2812 1.1211 11.199 1.1211-10.641-3.9219-21.84-6.1602-33.039-7.2812-11.758 0.55859-24.641 12.879-26.32 26.316zm201.6 197.68c-0.55859-8.3984 0.55859-16.238-2.8008-21.84-3.9219-6.7188-13.441-4.4805-20.16-6.7188-0.55859 0-1.1211-0.55859-2.2383-0.55859-2.2383-0.55859-3.3594 0.55859-3.9219 2.2383-0.55859 2.2383 0.55859 2.8008 2.8008 3.3594 7.8398 1.6797 13.441 7.2812 20.719 10.641 1.6797 0.55859 2.2383 2.2383 0 5.6016-7.2812-7.8398-19.039-6.7188-28-12.879-3.3594-2.2383-5.6016-1.1211-6.7188 1.6797-1.1211 2.8008 2.2383 3.3594 3.3594 3.9219 11.762 5.0352 23.52 9.5156 36.961 14.555zm-431.2-83.438c17.922-0.55859 33.039 2.2383 47.602 8.9609 16.801 7.8398 33.039 15.68 49.84 23.52 2.8008 1.1211 5.6016 3.9219 9.5195 1.6797 0-2.2383-1.1211-3.3594-2.8008-3.3594-7.8398-2.2383-14.559-6.7188-21.84-11.199-3.9219-2.2422-8.9609-4.4844-14.562-5.6016-5.0391-1.1211-10.641-2.8008-14.559-6.1602-9.5195-6.7188-20.16-8.3984-30.801-10.078-6.7188-1.125-14-2.2422-22.398 2.2383zm31.359-188.16c-5.6016-0.55859-8.3984 1.6797-6.7188 7.2812 1.1211 2.8008 1.6797 5.0391-1.1211 7.2812-2.2383 2.2383-0.55859 4.4805 1.1211 6.1602 2.8008 1.6797 4.4805 5.6016 8.9609 3.9219 5.0391-2.2383 9.5195-9.5195 8.9609-14.559-0.003906-5.6055-4.4844-8.9688-11.203-10.086zm122.64 122.64c0.55859-1.6797 1.1211-2.8008 1.1211-3.3594-0.55859-4.4805-3.3594-7.8398-7.2812-9.5195-5.0391-2.2383-6.1602 2.2383-8.3984 4.4805-4.4805 5.6016-4.4805 9.5195 0.55859 16.238 1.6797 2.2383 2.8008 6.1602 7.2812 4.4805 3.9219-1.6797 7.2812-3.3594 7.8398-7.8398-0.5625-1.6836-1.1211-3.9219-1.1211-4.4805zm-67.762-94.641c0-2.8008-0.55859-5.0391-1.6797-7.2812-2.2383-4.4805-5.6016-6.1602-10.641-5.6016-5.0391 0.55859-2.8008 4.4805-2.8008 7.2812-0.55859 2.8008-0.55859 5.6016-1.6797 8.3984-1.6797 4.4805 0.55859 6.7188 3.9219 7.8398 3.9219 1.6797 7.8398 1.6797 10.078-2.2383 1.6797-2.2383 2.8008-5.0391 2.8008-8.3984zm43.121 41.438c0-5.6016-4.4805-10.078-10.078-10.078-6.1602 0.55859-7.2812 5.6016-8.3984 10.641-1.6797 5.0391-0.55859 8.9609 3.9219 12.32 0.55859 0.55859 1.1211 0.55859 2.2383 0.55859 5.5938 0 12.316-7.2812 12.316-13.441zm19.039 10.641c0-2.2383 0-3.3594-0.55859-4.4805-0.55859-5.0391-3.9219-7.8398-8.3984-7.8398-4.4805 0-5.6016 3.3594-6.1602 7.2812-0.55859 2.8008-1.1211 5.6016-1.6797 8.3984-1.1211 3.9219 0.55859 6.1602 3.3594 7.8398 3.3594 1.6797 6.1602 1.6797 8.9609-1.1211 3.3555-3.3594 5.0352-7.2773 4.4766-10.078zm-41.441-45.359c0-6.1602-3.3594-10.641-8.9609-11.199-5.0391-0.55859-6.7188 2.2383-7.2812 9.5195 0 6.7188 3.9219 12.879 8.3984 12.879 3.9258 0.5625 7.8438-5.5977 7.8438-11.199zm-16.797 26.879c0 7.8398 1.6797 11.199 6.7188 11.199 6.1602 0 11.199-5.6016 11.199-11.762s-2.2383-8.3984-7.8398-8.3984c-8.9609 0.003906-10.078 1.1211-10.078 8.9609zm71.68 40.32c1.1211 0 4.4805-1.1211 4.4805-3.3594 0.55859-5.0391 2.8008-10.078 1.1211-15.121-1.1211-3.9219-3.9219-4.4805-7.2812-5.0391-2.2383 0-5.6016 0-5.0391 2.2383 0.55859 5.0391-3.3594 8.9609-3.3594 13.441 0.55859 5.0391 3.918 7.8398 10.078 7.8398zm-114.8-80.641c0 8.3984 0.55859 8.9609 6.7188 8.9609 7.2812 0 11.199-3.3594 10.641-8.3984 0-5.0391-6.7188-12.32-11.199-12.879-3.9219-0.003907-6.1602 4.4766-6.1602 12.316zm127.12 77.84c0 3.9219 1.1211 7.2812 5.0391 8.3984 2.2383 1.1211 4.4805-0.55859 5.6016-1.6797 3.3594-3.3594 4.4805-15.121 1.6797-19.039-1.6797-2.2383-3.9219-3.9219-7.2812-2.2383-2.2383 0.55859-5.0391 1.6797-4.4805 3.3594 1.6797 4.4805-1.1211 7.8398-0.55859 11.199zm-71.68 26.883c-0.55859-5.6016-3.3594-8.9609-8.3984-8.9609-5.0391 0.55859-10.078 5.6016-9.5195 10.078 0 5.0391 5.0391 10.641 8.3984 10.641 3.918 0 9.5195-6.7188 9.5195-11.758zm80.078-59.922c1.6797-2.8008-14.559-1.6797-1.6797-6.7188l0.55859-0.55859c-0.55859-3.9219-3.3594-6.1602-6.7188-6.7188-2.8008-0.55859-5.6016-0.55859-6.7188 2.8008-1.1211 5.0391-1.6797 8.9609 1.6797 14 3.3594 5.6016 3.9219 7.2812 8.9609 3.3594 1.1172-1.6836 3.3594-3.3633 3.918-6.1641zm-179.76 12.879c0-3.9219-6.1602-11.762-8.9609-11.762-2.2383 0-9.5195 7.2812-9.5195 9.5195 0 3.3594 7.8398 10.641 10.641 10.641 3.3633-0.55859 7.8398-4.4766 7.8398-8.3984zm213.36 7.8398c0.55859-5.0391-3.9219-12.32-7.2812-12.32-4.4805 0-7.2812 3.9219-7.8398 10.641-0.55859 6.1602 3.3594 11.199 8.9609 11.199 6.1602-0.55859 6.1602-5.5977 6.1602-9.5195zm-210-90.719c-1.1211 3.9219-1.6797 6.7188-2.2383 10.078-0.55859 3.9219 0.55859 7.8398 3.9219 10.641 3.3594 2.8008 6.1602 2.8008 8.3984-1.1211 5.5977-8.957 2.2383-15.676-10.082-19.598zm154.56 60.48c0-2.2383 0.55859-5.0391 0-7.2812-0.55859-3.3594-3.3594-3.9219-6.1602-4.4805-3.9219-0.55859-3.9219 2.2383-3.9219 5.0391 0 4.4805-1.1211 8.3984-2.2383 12.32-1.1211 3.3594 1.6797 6.1602 4.4805 7.2812 3.3594 1.6797 5.0391-1.1211 6.1602-3.9219 1.6797-2.7969 1.1211-6.1562 1.6797-8.957zm-104.16 9.5195c0 4.4805 0 7.8398-0.55859 10.641-1.1211 4.4805-1.1211 8.3984 3.3594 10.078 5.0391 2.2383 7.2812-2.2383 10.078-5.6016 2.2383-3.3594 1.1211-6.1602-0.55859-8.3984-3.3594-3.3594-7.2812-5.0391-12.32-6.7188zm110.88 64.402c2.2383 0 4.4805 0 6.1602-0.55859 3.9219-0.55859 5.6016-2.2383 4.4805-6.1602-0.55859-3.9219-1.6797-7.8398-6.1602-8.9609-3.3594-0.55859-10.078 2.2383-11.199 5.6016-1.1211 2.2383-2.8008 5.0391-1.1211 7.8398 2.2422 3.918 5.0391 3.3555 7.8398 2.2383zm163.52-81.203c-5.6016-5.0391-12.32-3.9219-16.801-1.6797-5.0391 2.2383-9.5195 2.2383-14 2.2383-1.6797 0-3.9219-1.1211-5.6016 1.1211 8.9609 1.1211 8.9609 1.1211 6.1602 7.8398 11.203-2.2383 21.285-2.2383 30.242-9.5195zm-285.04-7.2773c-0.55859-0.55859-0.55859-2.2383-1.1211-3.3594-1.6797-4.4805-4.4805-6.7188-9.5195-6.1602-6.1602 0.55859-3.3594 3.9219-2.8008 7.2812 0 0.55859-0.55859 1.1211-1.1211 1.6797-3.3594 2.2383-1.6797 5.0391 0.55859 7.2812 2.8008 2.2383 6.1602 3.9219 9.5195 1.6797 2.8047-1.6836 4.4844-3.9219 4.4844-8.4023zm-4.4805 42.559c3.9219 4.4805 2.8008 13.441 12.32 10.078 0.55859 0 2.2383 1.6797 3.3594 2.2383 2.8008 1.6797 5.6016 3.3594 8.3984 4.4805 2.8008 1.1211 5.6016-0.55859 7.2812-2.2383 1.6797-1.6797-0.55859-3.9219-1.1211-5.6016-1.6797-3.3594-3.3594-2.2383-6.1602-1.1211-6.1602 3.3594-10.078-1.1211-13.441-5.0391-2.2344-3.918-5.0352-4.4766-10.637-2.7969zm70.562 36.398c-0.55859-3.3594-2.8008-5.6016-2.8008-9.5195 0-3.9219-2.2383-5.6016-5.6016-4.4805-6.7188 2.2383-10.641 0-12.879-6.1602-0.55859-2.2383-3.3594-2.8008-5.0391-1.1211-1.6797 1.1211-3.9219 2.8008-2.2383 5.0391 2.2383 3.3594 3.3594 7.8398 9.5195 6.1602 4.4805-1.6797 7.2812 1.1211 10.078 4.4805 1.6797 2.2383 2.8008 4.4805 4.4805 6.7188 1.1211 1.1211 2.2383 1.6797 3.9219 0.55859-0.003906 0.007813-0.003906-1.1133 0.55859-1.6758zm98-10.078c0-5.6016-5.0391-12.32-10.078-11.762-4.4805 0.55859-5.0391 5.0391-5.0391 8.3984-0.55859 6.1602 2.8008 10.641 7.8398 10.641 3.9141-0.55859 7.2773-3.3594 7.2773-7.2773zm-145.04-60.48c0-6.7188-1.6797-8.3984-6.7188-8.3984-4.4805 0-8.3984 4.4805-8.3984 10.078 0 4.4805 3.3594 8.9609 7.2812 8.9609 4.4766 0 7.8359-4.4805 7.8359-10.641zm58.242 1.1211c5.0391 0 7.2812-2.2383 6.7188-6.1602-0.55859-6.1602-5.6016-11.199-10.641-11.199-3.9219 0-6.1602 3.3594-5.6016 8.3984 0.5625 6.7188 3.3633 8.9609 9.5234 8.9609zm-4.4805 47.598c-1.1211 0.55859-2.2383 0.55859-2.8008 1.1211-2.2383 3.9219-2.8008 7.8398-2.2383 12.32 1.1211 3.9219 4.4805 5.0391 7.8398 6.1602 2.2383 0.55859 4.4805 0 5.6016-2.2383 1.6797-2.2383 2.8008-6.1602 0.55859-7.8398-2.8008-2.8008-3.3594-8.4023-8.9609-9.5234zm0 40.32c0-5.6016-2.8008-10.641-6.1602-10.641-4.4805-0.55859-8.3984 3.9219-8.3984 8.9609 0 5.6016 2.8008 9.5195 7.2812 10.078 4.4766 0.003906 7.2773-2.7969 7.2773-8.3984zm119.28-48.16c1.1211 3.9219 1.1211 7.8398 2.8008 11.762 1.6797 4.4805 5.0391 4.4805 7.8398 1.1211 5.6016-6.7188 3.9219-14.559-4.4805-17.359-4.4805-1.6836-6.7227-0.003906-6.1602 4.4766zm-114.8 55.441c0 3.3594 0.55859 6.1602 2.8008 8.3984 1.1211 1.1211 2.2383 1.6797 3.9219 1.6797 5.0391-1.1211 9.5195-12.879 6.7188-16.238-1.6797-2.2383-3.9219-3.9219-7.2812-2.8008-4.4805 1.6797-6.1602 4.4805-6.1602 8.9609zm-40.879-31.359c0-5.6016-2.2383-8.3984-6.7188-8.3984s-7.8398 3.9219-7.8398 8.9609c0 3.9219 3.9219 8.9609 7.2812 8.9609 3.9141 0.55469 7.2773-3.9258 7.2773-9.5234zm-58.242-62.16c-2.2383 0.55859-5.6016 0.55859-5.0391 3.9219 0 3.3594 1.1211 6.7188 2.2383 10.078 1.1211 3.3594 4.4805 4.4805 7.8398 3.9219 2.8008-0.55859 4.4805-1.6797 5.6016-4.4805 1.6797-5.043-5.0391-13.441-10.641-13.441zm46.48 2.2383c0 4.4805 2.2383 7.8398 6.7188 8.3984 4.4805 0.55859 8.3984-3.3594 8.3984-7.2812 0-5.0391-3.9219-8.9609-9.5195-9.5195-6.1562 0.003906-5.0391 4.4844-5.5977 8.4023zm-15.68 47.043c-3.9219-0.55859-6.7188 0-7.2812 4.4805-0.55859 5.0391 5.0391 10.078 11.199 10.641 3.9219 0 5.6016-2.8008 5.6016-6.1602 0.55859-6.1641-2.8008-8.9609-9.5195-8.9609zm-57.68-101.36c0-5.5977-2.2422-8.3984-5.6016-8.3984-4.4805 0-7.8398 3.3594-7.2812 8.9609 0 5.0391 3.9219 9.5195 7.8398 8.9609 3.3633 0 5.6016-3.3633 5.043-9.5234zm17.918 24.082c-1.6797 0-4.4805 0-3.9219 2.2383 1.1211 4.4805-1.6797 8.9609 1.6797 12.879 1.6797 1.6797 2.8008 4.4805 6.1602 3.3594 2.8008-0.55859 5.0391-2.2383 6.1602-5.6016 1.125-5.5938-3.918-12.316-10.078-12.875zm171.36 47.039c0 4.4805 1.1211 8.3984 5.0391 9.5195 3.9219 1.1211 5.6016-3.3594 7.2812-6.1602 1.6797-3.3594 0.55859-6.7188-1.1211-10.078-1.1211-2.8008-3.3594-4.4805-6.7188-3.9219-2.8008 0.55859-2.8008 2.8008-2.8008 4.4805-0.5625 2.2422-1.1211 4.4805-1.6797 6.1602zm-174.16 6.1602c-2.8008 0.55859-4.4805 3.9219-6.7188 7.2812-1.6797 3.3594 2.2383 10.641 5.6016 11.199 3.9219 1.1211 5.6016-2.2383 7.2812-5.0391 1.1211-1.1211 1.6797-2.2383 2.2383-3.9219 1.6758-4.4805-2.2422-9.5195-8.4023-9.5195zm62.16 7.2812c-0.55859 5.0391 3.3594 10.641 6.7188 10.078 5.0391-1.1211 3.9219-6.1602 6.1602-8.9609 1.6797-2.8008 1.1211-4.4805-1.1211-6.7188-2.2383-2.2383-5.6016-3.9219-8.3984-2.8008-3.9219 1.6797-1.6797 6.1602-3.3594 8.4023zm193.2 27.438c0.55859-7.2812 0.55859-12.32-5.6016-15.121-2.2383-1.1211-5.6016 0-3.9219 1.6797 2.2383 3.9219 0.55859 6.1602-1.6797 8.9609-2.2383 3.9219 0 7.2812 3.3594 10.078 1.1211 1.1211 3.3594 1.1211 5.0391 0.55859 3.9219-1.6758 2.2422-5.5938 2.8047-6.1562zm-302.4-59.359c0-3.9219 0-7.2812-3.3594-9.5195-3.3594-1.6797-5.0391 0-7.2812 2.2383-3.3594 3.9219-2.8008 10.641 1.1211 14.559 2.8008 2.2383 5.0391 1.6797 7.2812-0.55859 2.2383-2.2383 2.2383-4.4766 2.2383-6.7188zm66.082 37.52c-4.4805 0-5.0391 2.8008-5.0391 6.1602 0 5.6016 3.3594 9.5195 7.8398 8.9609 4.4805 0 7.2812-3.3594 7.2812-8.3984-0.003906-3.9219-4.4844-6.7227-10.082-6.7227zm200.48-1.1172c0.55859-1.1211 1.1211-2.8008 1.1211-3.9219 0-3.9219-3.9219-7.8398-7.2812-6.7188-3.9219 1.1211-2.2383 4.4805-2.8008 6.7188v3.9219c0 4.4805 0 9.5195 5.0391 9.5195s5.6016-4.4805 3.9219-9.5195zm-226.24-43.68c-3.3594 0-5.6016 1.6797-6.1602 5.6016-0.55859 4.4805 3.9219 11.199 8.3984 10.641 3.9219 0 5.6016-2.8008 5.6016-6.1602 0.5625-4.4844-3.3594-9.5234-7.8398-10.082zm208.88 67.758c-0.55859 3.9219 2.2383 7.2812 5.0391 7.8398 3.3594 0 7.2812-4.4805 7.8398-8.9609 0-4.4805-2.8008-8.9609-6.1602-8.3984-5.6016 0.55859-6.7188 5.0391-6.7188 9.5195zm-181.44 3.9219c-3.3594 0.55859-6.7188 1.6797-6.7188 6.1602 0 3.3594 5.0391 9.5195 8.3984 8.9609 3.9219-0.55859 4.4805-3.9219 4.4805-7.2812 0.55859-4.4805-2.2422-7.8398-6.1602-7.8398zm-40.879-69.441c0-3.9219-6.1602-11.199-8.9609-11.199-2.8008 0.55859-5.0391 2.2383-5.0391 5.6016 0 6.1602 3.3594 10.641 7.8398 10.078 3.3594 0.55859 6.1602-1.1211 6.1602-4.4805zm142.8 4.4805c-0.55859 3.9219 0.55859 6.1602 2.8008 6.1602 2.8008 0.55859 7.8398-4.4805 8.3984-7.8398 0-3.3594-4.4805-10.641-6.1602-10.078-7.2773 1.6758-3.3594 7.8359-5.0391 11.758zm-191.52-8.9609c3.9219-0.55859 4.4805-3.3594 5.0391-6.7188 0.55859-5.0391-2.2383-7.8398-7.2812-7.8398-3.3594 0-5.0391 1.6797-5.6016 5.0391-1.1133 3.9219 2.8047 9.5195 7.8438 9.5195zm45.359 155.68c-6.7188 7.8398-7.2812 10.641-2.8008 15.68 3.3594 3.3594 6.7188 6.7188 10.641 11.199 1.1211-10.637-6.1562-16.797-7.8398-26.879zm7.2812-182c-2.2383 1.1211-5.0391 1.6797-3.9219 5.0391 1.6797 4.4805-2.2383 10.641 4.4805 13.441h1.1211c3.3594-1.1211 6.1602-7.2812 5.6016-11.762-0.5625-4.4766-3.9219-5.5977-7.2812-6.7188zm92.961 143.92c4.4805-0.55859 5.6016-3.9219 6.1602-7.2812 0.55859-3.9219-0.55859-7.8398-5.0391-7.8398-4.4805 0-6.1602 3.3594-6.1602 7.2812-0.5625 3.3594 1.1172 6.1602 5.0391 7.8398zm-80.082 57.68c1.6797-8.3984-1.6797-15.121-1.1211-22.398 0-1.6797-0.55859-2.8008-2.2383-2.8008-2.2383 0-3.3594 1.1211-2.8008 3.3594 1.1211 3.9219 1.1211 8.3984 0 11.762-2.7969 6.7188 1.6836 7.8359 6.1602 10.078zm37.523-156.8c-2.8008 0-6.7188 4.4805-7.2812 7.8398 0 3.3594 1.1211 6.1602 5.0391 6.1602 4.4805 0 6.7188-2.8008 6.7188-6.7188 1.1211-3.3594-0.55859-6.1602-4.4766-7.2812zm33.598 83.441c0-5.0391-0.55859-6.7188-3.3594-6.7188-3.9219 0-7.8398 3.3594-7.8398 8.3984 0 3.3594 0 6.7188 3.9219 7.2812 3.918 0.55859 7.2773-3.9219 7.2773-8.9609zm-99.68-116.48c3.3594-1.1211 3.9219-3.9219 5.0391-6.7188 1.1211-2.2383-5.0391-10.078-6.7188-9.5195-2.8008 1.1211-5.0391 3.9219-5.0391 7.2812-0.5625 3.918 3.3594 8.957 6.7188 8.957zm140.56 147.28c2.8008 0.55859 4.4805-1.6797 5.0391-5.6016s-1.6797-8.3984-5.6016-8.9609c-3.9219-0.55859-5.0391 2.2383-5.6016 5.0391-0.55469 3.9258 2.8047 8.9648 6.1641 9.5234zm-193.76-131.6c-1.6797 0-3.9219 3.3594-3.9219 5.0391 0 3.9219 5.0391 9.5195 8.3984 9.5195 3.3594 0 3.9219-2.2383 3.9219-5.0391-0.55859-4.4805-4.4805-9.5195-8.3984-9.5195zm191.52 78.961c4.4805 9.5195 6.1602 10.641 11.199 7.8398 5.6016-2.8008 2.2383-6.7188 1.6797-11.199-3.918 1.6797-7.8398 3.3594-12.879 3.3594zm-145.6-90.723c-0.55859-3.9219-5.0391-9.5195-8.3984-8.9609-3.3594 0.55859-3.9219 2.8008-3.3594 5.6016 0 5.6016 3.9219 9.5195 7.8398 8.9609 2.8008-1.1211 3.3594-2.8008 3.918-5.6016zm128.8 68.32c6.1602-7.2812 6.7188-11.762 2.2383-15.121-1.6797-1.1211-3.3594-1.1211-5.0391-1.1211-2.2383 0.55859-2.2383 2.2383-2.2383 3.9219-0.55859 5.043 1.1211 8.4023 5.0391 12.32zm-120.4-37.52c0-3.9219-3.3594-7.2812-6.7188-6.7188-3.3594 0-5.6016 1.6797-5.0391 5.0391 0.55859 3.3594 1.6797 7.2812 6.1602 7.2812 3.3555 0.55859 5.0352-2.8008 5.5977-5.6016zm80.641 64.961c-2.2383 3.3594-3.9219 6.1602-5.0391 8.9609-1.1211 2.8008 0 6.1602 2.8008 7.2812 3.3594 1.6797 4.4805-1.6797 5.6016-4.4805 1.6758-3.9219 2.2344-7.8438-3.3633-11.762zm-75.043-37.52c-2.8008 0-4.4805 1.1211-3.9219 3.9219 0.55859 3.3594-0.55859 7.8398 3.9219 8.9609 2.8008 0.55859 6.7188-3.3594 6.7188-6.7188 0.003906-5.0469-3.3555-5.6055-6.7188-6.1641zm15.121 22.957c3.9219 0 7.2812-3.9219 6.7188-7.8398 0-2.8008-1.6797-5.0391-4.4805-5.0391-3.9219 0.55859-6.1602 3.3594-6.1602 7.2812 0.5625 2.2383 0.5625 5.5977 3.9219 5.5977zm-21.84-0.55859c0 3.9219 2.2383 5.6016 5.6016 6.7188 2.2383 0.55859 3.9219 0 5.6016-1.6797 1.1211-1.6797 2.2383-3.3594 1.1211-5.6016-1.1211-2.2383-3.3594-2.2383-5.6016-2.2383s-4.4844 1.1211-6.7227 2.8008zm114.8 60.48c0-2.8008 0-6.7188-4.4805-6.1602-3.3594 0-5.0391 2.2383-5.0391 5.6016 0.55859 3.3594 1.6797 7.8398 5.6016 7.8398 4.4766 0.55859 2.7969-4.4805 3.918-7.2812zm-33.602-8.9609c3.9219-1.1211 5.0391-4.4805 5.0391-8.3984 0-2.2383-1.1211-3.9219-3.9219-3.9219-3.3594 0-6.1602 3.3594-5.6016 7.2812 0.56641 2.2383 1.125 4.4805 4.4844 5.0391zm44.242-12.32c-2.2383 3.3594-3.3594 6.1602-5.6016 8.3984-1.6797 1.1211-1.6797 3.9219 0 5.6016 1.1211 1.1211 2.8008 2.2383 4.4805 2.2383 2.2383 0 3.3594-2.2383 3.9219-4.4805 1.6797-3.918-1.1211-7.2773-2.8008-11.758zm-68.883-10.641c-0.55859-1.6797-1.6797-4.4805-4.4805-4.4805-5.0391 0-5.0391 3.9219-5.6016 7.8398-0.55859 2.2383 0 4.4805 2.2383 5.0391 2.8047 0.5625 7.2852-4.4766 7.8438-8.3984zm156.24-17.918c-1.6797-3.3594-3.3594-6.1602-4.4805-9.5195-0.55859-2.2383-1.1211-3.9219-3.9219-2.8008s-2.8008 2.8008-2.2383 5.0391c0.55859 2.8008 3.3594 4.4805 2.2383 7.8398-0.55859 1.6797 1.6797 2.2383 2.8008 1.6797 2.2422-1.1172 4.4805-0.55859 5.6016-2.2383zm-38.082-16.801c1.6797 2.2383 1.1211 6.7188 5.0391 5.6016 3.3594-1.1211 6.1602-2.8008 10.078-3.3594 1.1211 0 1.1211-1.6797 1.1211-2.2383 0-1.1211-1.1211-2.2383-2.2383-1.6797-4.4805 0.55469-8.957 0.55469-14 1.6758zm-104.72 44.242c0-3.3594-1.6797-5.0391-5.0391-5.0391s-5.6016 1.6797-5.6016 5.0391c0 3.3594 2.2383 6.1602 6.1602 6.1602 3.3594-0.5625 4.4805-3.3633 4.4805-6.1602zm-104.72-156.24c-1.1211-3.3594-3.9219-4.4805-7.2812-4.4805-2.8008 0-5.0391 1.6797-4.4805 4.4805 0.55859 3.3594 3.9219 5.0391 7.2812 4.4805 2.8008 0 4.4805-1.1211 4.4805-4.4805zm125.44 173.6c0 2.2383 0 5.0391 2.8008 6.1602 2.2383 0.55859 5.6016-5.0391 5.6016-8.9609 0-2.2383-1.6797-3.9219-3.9219-3.9219-4.4805 0-4.4805 3.3633-4.4805 6.7227zm-99.117-60.48c3.9219 0 5.6016-2.2383 5.6016-5.6016 0-2.8008-1.6797-4.4805-4.4805-4.4805-3.9219 0-5.6016 2.8008-6.1602 6.1602-0.5625 2.2422 2.2383 3.3633 5.0391 3.9219zm136.08 71.68c-0.55859-2.2383 1.1211-5.6016-2.8008-5.6016-4.4805 0-5.0391 3.9219-5.6016 7.2812-0.55859 2.8008 0 5.0391 3.3594 5.0391 3.9219 0 4.4844-3.3594 5.043-6.7188zm-89.598-57.121c3.3594-2.8008 3.9219-6.1602 3.9219-9.5195 0-2.8008-1.6797-3.3594-3.9219-3.3594-2.2383 0-3.9219 1.1211-3.9219 3.9219-0.55859 3.3594 0.55859 6.1562 3.9219 8.957zm31.918 8.9609c0.55859-2.8008 2.2383-6.1602-2.8008-6.1602-3.3594 0-5.6016 2.2383-5.6016 5.6016 0 3.3594 1.6797 6.7188 5.6016 6.7188 3.9219-0.55859 3.9219-3.3594 2.8008-6.1602zm-87.359-39.762c-0.55859-1.1211-1.6797-3.9219-3.9219-3.3594-3.9219 1.1211-5.0391 4.4805-5.0391 7.8398 0 1.6797 0.55859 3.3594 2.8008 3.3594 2.8008 1.1211 6.1602-3.3594 6.1602-7.8398zm-19.602-26.316c0 3.3594 2.2383 5.0391 5.6016 5.0391 2.8008 0 3.3594-2.2383 3.3594-4.4805 0-3.3594-1.6797-5.6016-5.0391-5.0391-3.3594 0-3.9219 2.2383-3.9219 4.4805zm-28.559-44.801c2.2383 0 3.9219-0.55859 3.9219-3.3594-0.55859-2.8008-1.1211-5.6016-5.0391-5.0391-2.2383 0-3.9219 1.1211-3.9219 3.9219 0 2.7969 1.6797 4.4766 5.0391 4.4766zm370.16 92.957c-1.6797-2.2383-3.9219-4.4805-6.7188-3.9219-2.8008 0-3.3594 2.8008-2.8008 4.4805 0 2.2383 1.6797 5.0391 4.4805 5.0391 2.2383-0.55469 3.918-2.7969 5.0391-5.5977zm-53.762 7.8438c4.4805 0 8.3984 0.55859 10.078-4.4805 0.55859-1.6797 1.1211-3.3594-1.1211-4.4805-1.6797-1.1211-4.4805-0.55859-4.4805 0.55859-0.55469 2.8008-4.4766 4.4805-4.4766 8.4023zm-208.88 14c0-1.6797 0.55859-4.4805-3.3594-4.4805-3.3594 0-3.9219 3.3594-3.9219 6.1602 0 2.8008 0.55859 5.6016 3.3594 5.6016 4.4805-0.5625 4.4805-3.9219 3.9219-7.2812zm-73.918-53.762c-0.55859-2.2383-1.1211-3.9219-3.3594-3.3594-2.2383 0.55859-5.0391 1.1211-5.0391 4.4805 0 2.2383 1.1211 5.6016 4.4805 4.4805 2.2344-0.5625 3.918-2.8008 3.918-5.6016zm-35.281-53.762c-3.3594 0.5625-2.2422 2.8008-2.2422 5.043 0 2.8008 0.55859 6.1602 3.9219 5.6016 2.8008-0.55859 2.2383-3.9219 2.2383-6.1602 0.5625-3.3633-1.1172-3.9219-3.918-4.4844zm198.8 160.72c0 2.2383-0.55859 5.6016 2.8008 5.6016 2.8008 0 3.3594-2.8008 3.3594-5.6016 0-2.2383-1.1211-4.4805-3.3594-4.4805-3.3633-0.5625-2.2422 2.8008-2.8008 4.4805zm-149.52-109.2c1.6797-0.55859 2.2383-2.2383 1.6797-3.9219-0.55859-2.8008-2.2383-5.0391-5.0391-5.0391-1.6797 0-2.8008 2.2383-2.8008 3.9219 0.55859 3.3555 2.7969 4.4766 6.1602 5.0391zm-21.844-70c-2.8008 3.3594-2.8008 6.7188 0 9.5195 1.1211 1.1211 2.8008 1.1211 3.9219-0.55859 2.2383-3.3594-0.55859-5.6016-2.2383-8.3984 0-0.003906-0.5625-0.003906-1.6836-0.5625zm63.281 58.797c2.8008 5.6016 7.2812 2.8008 10.641 2.8008 1.1211 0 2.2383-1.1211 2.2383-2.8008-0.55859-1.6797-1.6797-2.2383-2.8008-1.6797-3.3594 0-6.7188 0.5625-10.078 1.6797zm45.359 51.52c-1.1211-5.0391-3.9219-7.2812-6.7188-9.5195-0.55859-0.55859-2.2383 0-2.8008 0.55859-1.1211 0.55859-1.1211 1.6797 0 2.8008 2.2422 2.2422 4.4805 4.4805 9.5195 6.1602zm33.043 12.32c-3.9219-5.0391-8.3984-2.2383-12.32-3.9219 2.7969 6.1641 2.7969 6.1641 12.32 3.9219zm-114.24-127.68c-2.8008-1.6797-3.9219-2.8008-5.6016-3.9219-1.6797-1.1211-3.3594-2.8008-5.6016-0.55859-0.55859 0.55859-1.1211 1.6797 0 2.8008 1.1211 1.6797 1.1211 5.0391 5.0391 3.9219 1.6836 0 2.8047-0.5625 6.1641-2.2422zm4.4805 80.641c-0.55859 1.6797 0.55859 2.8008 2.2383 2.2383 2.2383 0 3.9219-1.6797 3.9219-3.9219 0-1.6797-0.55859-2.8008-2.2383-3.3594-3.3633 0.003907-2.8008 3.9219-3.9219 5.043zm147.28 67.762c0-1.6797-1.6797-2.2383-2.8008-2.2383-2.2383 0-4.4805 0.55859-5.0391 2.8008-0.55859 1.1211 0.55859 2.8008 2.2383 2.8008 2.2422-0.003906 4.4805-0.56641 5.6016-3.3633zm-86.801-76.16c-2.8008 0-5.6016-3.3594-8.3984 1.1211-0.55859 0.55859 0 2.2383 0.55859 2.8008 3.3594 2.8008 5.6016-0.55859 7.8398-1.6797v-2.2422zm216.72 34.719c-1.6797 3.9219-3.3594 6.7188 0.55859 8.3984 0.55859 0.55859 2.2383 0 2.8008-0.55859 1.6797-2.8008-0.55859-4.4805-3.3594-7.8398zm-324.8-82.32c2.2383-2.2383 5.6016-2.8008 3.9219-6.7188 0-0.55859-1.1211-1.6797-1.1211-1.1211-2.8008 1.1211-3.3594 3.3594-3.3594 6.1602 0 0.55859 0 0.55859 0.55859 1.6797zm28.562-11.758c-1.6797 1.1211-1.6797 2.8008-1.6797 4.4805 0 1.6797-0.55859 4.4805 2.8008 3.9219 2.2383 0 2.2383-2.2383 2.2383-3.9219-0.55859-2.2422-1.1211-3.9219-3.3594-4.4805zm50.398 103.04c-2.2383 0-3.3594 1.1211-2.8008 3.3594 0 1.1211 0.55859 2.8008 2.2383 2.8008 2.2383 0.55859 2.8008-1.1211 3.3594-2.8008 0.5625-2.2383-1.1172-3.3594-2.7969-3.3594zm-69.438-44.801c1.6797-0.55859 2.2383-1.1211 2.2383-2.8008 0-1.6797-0.55859-2.8008-2.2383-2.8008s-2.2383 1.6797-2.8008 2.8008c0 1.1211 1.1172 2.2422 2.8008 2.8008zm84 27.441c2.2383 0 3.3594-1.1211 3.3594-3.3594 0-0.55859-0.55859-1.1211-1.1211-1.1211-2.2383 0-3.3594 1.1211-3.9219 2.8008-1.1172 1.6797 1.1211 1.6797 1.6836 1.6797zm178.64-12.883c0-1.6797-0.55859-2.8008-2.2383-3.3594-2.8008-0.55859-2.2383 1.6797-2.2383 3.3594 0 1.1211 0 2.8008 2.2383 2.8008 1.6797 0 2.2383-1.1211 2.2383-2.8008zm-199.36 117.04c1.6797-3.9219 1.6797-6.7188 0-9.5195-2.2383 2.7969-2.2383 5.5977 0 9.5195zm-22.398-159.04c0-1.6797-0.55859-3.3594-2.2383-3.9219-1.1211-0.55859-2.2383 0-2.2383 1.1211 0 1.6797 0.55859 3.3594 2.2383 4.4805 1.1172 0.5625 1.6758-0.55859 2.2383-1.6797zm229.6 75.602c0.55859 0 1.1211 0.55859 1.6797 0.55859 1.6797-0.55859 5.0391 0.55859 3.3594-2.2383-1.1172-2.8008-3.3594 0-5.0391 1.6797zm-280.56-122.64c-0.55859 0.55859-2.2383 0-1.6797 1.6797 0.55859 0.55859 1.1211 1.6797 2.2383 1.6797 1.1211 0 2.2383-0.55859 2.2383-1.6797 0.003906-1.6797-1.6758-1.1211-2.7969-1.6797zm161.28 68.32c0-1.6797-0.55859-1.6797-1.6797-1.6797s-2.2383 0-2.2383 1.1211c0 0.55859 1.1211 1.6797 2.2383 1.6797 1.1172 0.55859 1.6797-0.5625 1.6797-1.1211z"/>
  <path d="m352.24 325.92c8.3984-1.1211 18.48 1.1211 22.398 5.0391 9.5195 10.078 21.84 16.238 34.719 19.602 36.961 9.5195 74.48 13.441 112.56 11.762 9.5195-0.55859 18.48-3.9219 28.559-2.2383 3.3594 0.55859 7.8398-0.55859 7.8398 3.3594 0 4.4805-5.0391 2.8008-7.8398 2.8008-11.199-0.55859-22.398 2.2383-33.602 2.8008-17.922 1.1211-35.281-1.1211-52.641-3.3594-19.039-2.2383-38.078-5.0391-56-10.641-12.879-3.3594-25.762-7.2812-36.961-15.121-6.1484-4.4844-12.871-7.8477-19.031-14.004z"/>
 </g>
</svg>
