<?xml version="1.0" encoding="UTF-8"?>
<svg width="700pt" height="700pt" version="1.1" viewBox="0 -50 700 700" xmlns="http://www.w3.org/2000/svg" xmlns:xlink="http://www.w3.org/1999/xlink">
 <g>
  <path d="m605.04 210c0.011719-7.1094-2.8242-13.922-7.875-18.926-5.2109-5.2109-12.344-8.043-19.711-7.8242-7.3672 0.21484-14.32 3.4609-19.215 8.9688l-7 7.875v-7.5938c0-9.3789-5.0039-18.043-13.125-22.734-8.125-4.6875-18.129-4.6875-26.25 0-8.125 4.6914-13.125 13.355-13.125 22.734v61.25h-157.48c-16.238-0.019531-31.809-6.4766-43.289-17.961-11.484-11.48-17.941-27.051-17.961-43.289v-48.125c-0.023438-17.461-6.2227-34.355-17.5-47.688v-35.438c0.035156-8.7266-4.2852-16.891-11.516-21.773-7.2305-4.8867-16.418-5.8398-24.5-2.5508-1.9844-7.4727-7.1797-13.68-14.184-16.953-7.0039-3.2734-15.098-3.2734-22.102 0-7.0039 3.2734-12.199 9.4805-14.184 16.953-8.082-3.2852-17.27-2.3281-24.496 2.5547-7.2305 4.8828-11.551 13.047-11.52 21.77v48.281c-2.1875 4.1445-3.9766 8.4844-5.3359 12.969h-3.4141c-11.598 0.015625-22.719 4.6289-30.922 12.828-8.1992 8.2031-12.812 19.324-12.828 30.922v8.75h18.742c1.5664 6.0156 4.7109 11.504 9.1055 15.902 4.3984 4.3945 9.8867 7.5391 15.902 9.1055v79.992c0.054688 48.715 19.434 95.422 53.879 129.87 34.449 34.445 81.156 53.824 129.87 53.879v48.879l-14.938 14.938 12.371 12.371 20.066-20.066v-56.121h35v48.879l-14.938 14.938 12.371 12.371 20.066-20.066v-56.566c47.117-2.2656 91.562-22.555 124.14-56.676s50.785-79.457 50.863-126.63v-13.879l37.195-37.195c5.0352-5.0078 7.8594-11.824 7.8398-18.926zm-80.035-26.25c2.3203 0 4.5469 0.92188 6.1875 2.5625s2.5625 3.8672 2.5625 6.1875v61.25h-17.5v-61.25c0-4.832 3.918-8.75 8.75-8.75zm-288.75-131.25c2.3203 0 4.5469 0.92188 6.1875 2.5625s2.5625 3.8672 2.5625 6.1875v20.047c-0.55078-0.35156-1.1562-0.59375-1.75-0.92578-1.1445-0.67188-2.3203-1.2773-3.5-1.8906-2.0117-1.0508-4.0586-2.0117-6.125-2.8711-1.2617-0.51562-2.5273-1.0078-3.8242-1.4531-0.77734-0.26953-1.5234-0.64062-2.3086-0.875v-12.031c0-2.3203 0.92187-4.5508 2.5664-6.1914 1.6406-1.6406 3.8711-2.5625 6.1914-2.5586zm-43.75-8.75c0-4.832 3.918-8.75 8.75-8.75s8.75 3.918 8.75 8.75v26.25h-17.5zm-35 17.5c0-4.832 3.918-8.75 8.75-8.75s8.75 3.918 8.75 8.75v15.41c-0.74219 0.33984-1.418 0.79688-2.1523 1.1641-1.4688 0.72656-2.9062 1.5156-4.3242 2.3359-1.6445 0.95312-3.2461 1.9414-4.8047 3.0195-1.3633 0.9375-2.6953 1.918-4 2.9492-0.72656 0.57031-1.5234 1.043-2.2227 1.6367zm-26.25 78.75v17.5h-24.754c1.8164-5.1133 5.168-9.543 9.6016-12.676 4.4297-3.1328 9.7266-4.8203 15.152-4.8242zm-6.3945 35h6.3945v6.3945c-2.6523-1.5391-4.8555-3.7422-6.3945-6.3945zm417.64 105c-0.050781 44.078-17.582 86.332-48.75 117.5s-73.422 48.699-117.5 48.75h-61.25c-44.078-0.050781-86.332-17.582-117.5-48.75s-48.699-73.422-48.75-117.5v-135.62c0.035156-11.746 3.6992-23.195 10.484-32.785 6.7891-9.5859 16.371-16.844 27.438-20.781 9.6914-3.4453 20.137-4.2031 30.223-2.1875h0.11328c2.7656 0.57031 5.4844 1.3477 8.1289 2.3281 0.875 0.31641 1.6445 0.73438 2.4766 1.0938 1.7578 0.71094 3.4766 1.5156 5.1523 2.4062 0.96094 0.52344 1.8633 1.1562 2.793 1.75 1.4531 0.875 2.8945 1.8359 4.2695 2.8789 0.92578 0.69922 1.793 1.4883 2.6758 2.25 0.88281 0.76172 1.6797 1.5234 2.5039 2.3203v1.3516h1.4531c0.28125 0.28906 0.60547 0.51562 0.875 0.8125 9.7422 10.48 15.156 24.254 15.164 38.562v48.125c0.023438 20.879 8.3281 40.895 23.09 55.66 14.766 14.762 34.781 23.066 55.66 23.09h201.25zm42.324-63.445-33.574 33.574v-23.68l20.125-22.574c1.6914-1.918 4.1055-3.043 6.6602-3.1055 2.5391-0.03125 4.9883 0.94141 6.8164 2.7109 1.7422 1.7422 2.7188 4.1016 2.7188 6.5625 0 2.4609-0.97656 4.8242-2.7188 6.5625z"/>
  <path d="m192.5 122.5c-6.9609 0-13.641 2.7656-18.562 7.6875s-7.6875 11.602-7.6875 18.562 2.7656 13.641 7.6875 18.562 11.602 7.6875 18.562 7.6875 13.641-2.7656 18.562-7.6875 7.6875-11.602 7.6875-18.562-2.7656-13.641-7.6875-18.562-11.602-7.6875-18.562-7.6875zm0 35c-3.5391 0-6.7305-2.1328-8.082-5.4023-1.3555-3.2695-0.60938-7.0312 1.8945-9.5352s6.2656-3.25 9.5352-1.8945c3.2695 1.3516 5.4023 4.543 5.4023 8.082 0 2.3203-0.92188 4.5469-2.5625 6.1875s-3.8672 2.5625-6.1875 2.5625z"/>
  <path d="m472.5 288.75h-183.75c-21.883 0-42.102 11.676-53.043 30.625-10.941 18.949-10.941 42.301 0 61.25 10.941 18.949 31.16 30.625 53.043 30.625h113.75c6.9609 0 13.641-2.7656 18.562-7.6875s7.6875-11.602 7.6875-18.562c-0.027344-2.9883-0.57422-5.9492-1.6094-8.75h10.359c6.9609 0 13.641-2.7656 18.562-7.6875s7.6875-11.602 7.6875-18.562c-0.027344-2.9883-0.57422-5.9492-1.6094-8.75h10.359c9.3789 0 18.043-5.0039 22.734-13.125 4.6875-8.1211 4.6875-18.129 0-26.25-4.6914-8.1211-13.355-13.125-22.734-13.125zm0 35h-122.5v17.5h87.5c4.832 0 8.75 3.918 8.75 8.75s-3.918 8.75-8.75 8.75h-87.5v17.5h52.5c4.832 0 8.75 3.918 8.75 8.75s-3.918 8.75-8.75 8.75h-113.75c-15.629 0-30.074-8.3398-37.887-21.875-7.8164-13.535-7.8164-30.215 0-43.75 7.8125-13.535 22.258-21.875 37.887-21.875h183.75c4.832 0 8.75 3.918 8.75 8.75s-3.918 8.75-8.75 8.75z"/>
 </g>
</svg>
