<?xml version="1.0" encoding="UTF-8"?>
<svg width="700pt" height="700pt" version="1.1" viewBox="0 -50 700 700" xmlns="http://www.w3.org/2000/svg" xmlns:xlink="http://www.w3.org/1999/xlink">
 <g>
  <path d="m405.01 113.66v-9.1641h-84.875v-49.676h-119.96v111.23l-75.059-0.003907v336.77h279.89l-0.003907-295.88 69.801 298.25 100.08-29.008-90.227-385.61zm-204.83 370.49h-56.395v-299.44h56.391zm101.29 0h-82.625v-410.67h82.625zm84.875 0h-66.207v-360.99h65.27l0.94141 4.0156zm102.16-2.3711-81.711-349.2 64.184-18.602 81.711 349.2z"/>
  <path d="m162.64 234.58h18.668v199.69h-18.668z"/>
  <path d="m250.82 103.96h18.668v199.7h-18.668z"/>
  <path d="m343.9 161.14h18.668v199.69h-18.668z"/>
  <path d="m235.75 427.36h48.801v18.668h-48.801z"/>
  <path d="m336.74 427.36h33.004v18.668h-33.004z"/>
  <path d="m235.75 378.1h48.801v18.668h-48.801z"/>
  <path d="m438.55 163.31 18.156-4.3516 65.461 273.14-18.156 4.3516z"/>
 </g>
</svg>
