<?xml version="1.0" encoding="UTF-8"?>
<svg width="700pt" height="700pt" version="1.1" viewBox="0 -50 700 700" xmlns="http://www.w3.org/2000/svg" xmlns:xlink="http://www.w3.org/1999/xlink">
 <g>
  <path d="m586.25 175c0-72.371-58.879-131.25-131.25-131.25s-131.25 58.879-131.25 131.25 58.879 131.25 131.25 131.25 131.25-58.879 131.25-131.25zm-44.965 73.91-11.848-11.84-12.371 12.371 11.848 11.84c-17.816 15.285-40.383 25.121-65.16 27.02l-0.003906-52.75c10.352-1.4883 19.855-5.5664 27.859-11.566l13.957 13.957 12.371-12.371-13.957-13.957c6.0039-8.0078 10.078-17.508 11.566-27.867h52.754c-1.8945 24.793-11.73 47.352-27.016 65.164zm27.02-82.66h-52.754c-1.4883-10.352-5.5664-19.855-11.566-27.867l37.301-37.301c15.285 17.82 25.121 40.379 27.02 65.168zm-104.55-104.55c24.789 1.8984 47.348 11.734 65.16 27.02l-37.301 37.301c-8.0039-6-17.508-10.078-27.859-11.566zm35 113.3c0 24.125-19.625 43.75-43.75 43.75s-43.75-19.625-43.75-43.75 19.625-43.75 43.75-43.75 43.75 19.625 43.75 43.75zm-52.5-113.3v52.754c-10.352 1.4883-19.855 5.5664-27.859 11.566l-37.301-37.301c17.812-15.293 40.371-25.121 65.16-27.02zm-77.535 39.395 37.301 37.301c-6 8.0039-10.078 17.508-11.566 27.859h-52.754c1.8984-24.789 11.734-47.348 27.02-65.16zm-27.02 82.66h52.754c1.4883 10.352 5.5664 19.855 11.566 27.867l-37.301 37.301c-15.285-17.82-25.121-40.379-27.02-65.168zm104.55 104.55c-24.789-1.8984-47.348-11.734-65.16-27.02l37.301-37.301c8.0078 6.0039 17.508 10.07 27.859 11.566z"/>
  <path d="m455 201.25c14.473 0 26.25-11.777 26.25-26.25s-11.777-26.25-26.25-26.25-26.25 11.777-26.25 26.25 11.777 26.25 26.25 26.25zm0-35c4.8281 0 8.75 3.9297 8.75 8.75s-3.9219 8.75-8.75 8.75-8.75-3.9297-8.75-8.75 3.9219-8.75 8.75-8.75z"/>
  <path d="m542.5 323.75h-13.703c54.695-27.246 92.453-83.605 92.453-148.75 0-91.672-74.578-166.25-166.25-166.25s-166.25 74.578-166.25 166.25c0 65.145 37.758 121.5 92.453 148.75h-93.984l-47.766-246.77c-2.7383-14.188-15.227-24.484-29.672-24.484-9.0469 0-17.543 4.0078-23.309 10.988-5.7578 6.9844-8.0859 16.09-6.3594 24.98l20.129 104.03h-16.492v-17.5c0-28.953-23.547-52.5-52.5-52.5s-52.5 23.547-52.5 52.5v70c0 28.953 23.547 52.5 52.5 52.5s52.5-23.547 52.5-52.5h26.652l15.242 78.75h-68.145c-19.301 0-35 15.699-35 35 0 17.816 13.422 32.402 30.668 34.562l-10.762 25.094c-3.4844 8.1289-2.6602 17.395 2.2148 24.789 3.6836 5.582 9.2656 9.4492 15.582 11.016l-24.676 74.008c-1.7656 5.3203-0.875 11.219 2.4062 15.766 3.2812 4.5547 8.5938 7.2656 14.211 7.2656h25.305c7.543 0 14.219-4.8125 16.59-11.961l13.512-40.539h284.9l13.512 40.539c2.3984 7.1562 9.0625 11.961 16.605 11.961h25.305c5.6094 0 10.91-2.7227 14.191-7.2617 3.2812-4.5508 4.1836-10.449 2.3984-15.766l-24.668-74.008c6.3164-1.5664 11.898-5.4258 15.582-11.008 4.875-7.3867 5.6953-16.652 2.2148-24.789l-10.754-25.094c17.242-2.1836 30.664-16.758 30.664-34.574 0-19.301-15.699-35-35-35zm-376.25-78.75c0 19.301-15.699 35-35 35s-35-15.699-35-35v-70c0-19.301 15.699-35 35-35s35 15.699 35 35zm140-70c0-82.023 66.727-148.75 148.75-148.75s148.75 66.727 148.75 148.75-66.727 148.75-148.75 148.75-148.75-66.727-148.75-148.75zm-122.5 52.5v-17.5h19.879l3.3867 17.5zm13.535-142.36c-0.71875-3.7461 0.25391-7.5781 2.6875-10.516 2.4336-2.9414 5.9922-4.6289 9.8086-4.6289 6.082 0 11.34 4.3398 12.504 10.309l47.109 243.44h-25.934zm-19.844 448.61h-25.305l26.258-78.75h25.305zm-10.902-96.25c-2.9922 0-5.6523-1.4336-7.3047-3.9375s-1.9258-5.5117-0.74219-8.2617l13.523-31.551h52.098l-14.586 43.75zm46.848 43.75 5.8359-17.5h25.777v-17.5h-19.949l17.5-52.5h214.9l17.5 52.5h-212.45v17.5h218.29l5.8359 17.5zm334.48 52.5h-25.312l-26.25-78.75h25.312zm-7.0977-100.19c-1.6445 2.5039-4.3047 3.9375-7.2969 3.9375h-42.988l-14.578-43.75h52.098l13.52 31.543c1.1641 2.7578 0.89453 5.7773-0.75391 8.2695zm1.7344-57.312h-385c-9.6523 0-17.5-7.8477-17.5-17.5s7.8477-17.5 17.5-17.5h385c9.6523 0 17.5 7.8477 17.5 17.5s-7.8477 17.5-17.5 17.5z"/>
 </g>
</svg>
