<?xml version="1.0" encoding="UTF-8"?>
<svg width="700pt" height="700pt" version="1.1" viewBox="0 -50 700 700" xmlns="http://www.w3.org/2000/svg" xmlns:xlink="http://www.w3.org/1999/xlink">
 <g>
  <path d="m357.64 100.8c-10.973 0.09375-22.207 3.9766-35.488 10.488-10.68-5.1016-20.859-8.0352-31.117-7.2891-9.9805 0.72656-19.852 4.8086-30.242 12.09-4.1602-1.5625-9.0898-0.83594-14.684 0.71094-4.9336-6.9141-9.8906-11.949-16.434-12.977-6.4336-1.0078-12.406 2.1484-19.055 6.7539-5.3125-4.3711-11.062-7.2891-17.133-7.2891-6.6602 0-12.805 3.3516-18.531 8.5312-7.8672-0.054687-15.883-0.27344-22.551 3.7305-8.6289 7.1367-7.2734 15.973-3.6719 24.711-3.2773 8.9023-2.6992 17.969 4.5469 24.352-11.711 9.3906-24.656 9.5-36.535 15.289-5.8477 2.6055-8.8438 7.8789-6.9922 12.441 6.4727 11.09 26.82 3.3633 34.613-1.4219 6.6562-4.1797 12.707-9.418 18.707-14.043-8.4102 20.766-11.695 41.738-14.336 59.371-5.0586 41.164 16.23 74.633 45.801 83.547 3.0234 15.246 13.418 28.895 28.32 35.02 3.4375 10.941 9.7891 19.375 19.23 22.574 5.5039 1.8672 11.762 2.0469 18.531 0.89062 0.28516 7.1211 3.3125 13.656 5.5938 20.621 0.085937 10.062 0.22656 21.238-0.69922 30.754-6.8438 6.168-7.1914 18.336-0.69922 24.887s18.461 6.1172 24.473-0.89062c5.9258-4.7617 9.2148-11.215 10.488-17.598v-39.82c0.082031-2.293-0.62891-4.0977-1.0469-6.0469 4.0391 1.9414 8.3828 2.8828 12.41 3.7344-1.4062 12.098 0.80078 25.102-0.875 35.73-6.8438 6.168-7.1914 18.336-0.69922 24.887 6.4922 6.5508 18.461 6.1172 24.473-0.89062 5.9258-4.7617 9.2148-11.215 10.488-17.598v-40.355c16.695 10.641 37.105 9.7695 56.465 0.53906 3.5508 0.80469 7.0703 1.3555 10.664 1.6016 0.082031 10.414 0.23047 21.953-0.69922 31.82-6.8438 6.168-7.1914 18.336-0.69922 24.887 6.4922 6.5508 18.461 6.1172 24.473-0.89062 5.9258-4.7617 9.2148-11.215 10.488-17.598v-39.82c0.023437-2.2461-0.39453-4.4961-1.2227-6.5781 2.5703-1.7148 5.0898-3.6055 7.5156-5.8672 2.6094 4.1289 4.2383 7.957 4.8945 15.109 0.085937 10.062 0.22656 21.238-0.69922 30.754-6.8438 6.168-7.1914 18.336-0.69922 24.887 6.4922 6.5508 18.461 6.1172 24.473-0.89062 5.9258-4.7617 9.2148-11.215 10.488-17.598v-39.82c0.003906-1.8711-0.28906-3.7383-0.875-5.5117-1.2969-6.5977-3.8672-11.797-5.7695-17.602 4.1953 0.25391 8.0469-0.17969 11.539-1.6016 8.3281-3.3867 13-11.66 16.082-22.043 10.309-3.0859 18.215-7.7852 22.902-14.934 4.7266-7.207 6.0703-16.105 6.293-26.664 10.223-8.0547 17.738-15.645 21.504-25.598 1.8164-4.8008 2.7305-9.9883 2.9727-15.82 3.4883 7.4414 5.1758 15.359 7.5156 22.574 1.5938 3.7852 4.2695 7.7695 8.5664 9.9531 2.6523 1.3203 6.25 0.054687 7.5156-2.668 3.6328-7.3828 3.3945-16.387-0.52344-25.953-3.7695-9.2031-13.172-22.027-24.125-33.418 2.9648-19.91-3.0625-36.664-17.656-47.996 1.9258-11.152 0.77344-21.641-5.418-29.508-6.3281-8.043-17.094-12.258-30.418-12.977-8.293-13.402-17.184-22.719-28.32-25.953-10.363-3.0117-21.789 0.089843-34.266 6.7539-5.6094-11.812-12.434-20.766-22.203-23.82-10.5-3.2852-22.504 0.078126-35.836 7.6445-9.6523-5.7227-21.871-10.266-31.816-10.309zm0.17578 11.375c9.1055-0.078125 17.598 2.7812 28.496 9.957 1.7383 1.1797 4.1406 1.2539 5.9453 0.17969 13.328-8.1328 22.863-10.145 29.719-8 6.8555 2.1445 12.723 8.7891 18.008 22.219 1.1523 3.1562 5.4102 4.6328 8.2148 2.8438 13.328-8.1289 22.66-10.254 30.418-8 7.7617 2.2539 15.371 9.4609 23.426 23.109 0.95703 1.6836 2.8086 2.8008 4.7188 2.8438 12.867 0 20.711 3.793 25 9.2422 4.2891 5.4492 5.6523 13.277 3.1484 23.465-0.53516 2.2266 0.41016 4.7461 2.2734 6.043 15.113 10.246 19.73 23.914 14.512 45.152-0.15625 0.75781-0.15625 1.5508 0 2.3125 2.7305 16.66 2.418 26.879-0.52344 34.664-2.9453 7.7852-8.8633 14.094-19.754 22.398-1.4141 1.0625-2.2852 2.8359-2.2734 4.6211 0 10.902-1.3047 18.168-4.5469 23.109-3.2422 4.9453-8.7852 8.543-19.23 11.199-1.9258 0.50391-3.5234 2.1289-4.0195 4.0898-2.6094 10.617-5.9414 15.5-10.664 17.418-4.7227 1.9219-13.125 1.2031-26.574-4.2656-2.4219-0.96875-5.4531 0.054687-6.8164 2.3125-7.9102 13.406-16.832 20.961-26.047 24.707-9.2148 3.75-19.031 3.8711-29.371 1.2461-1.2695-0.34766-2.6602-0.22266-3.8477 0.35156-21.043 10.699-40.043 10.656-55.066-4.6211-1.6484-1.6797-4.3828-2.1289-6.4688-1.0664-9.8555 5.0078-19.312 4.9492-28.672 1.7773-9.3555-3.1719-18.445-9.6914-26.398-17.777-1.5547-1.5938-4.082-2.1055-6.1172-1.2461-13.328 5.4219-23.273 6.2734-29.719 4.0898-6.4453-2.1836-10.605-7.0547-13.113-17.242-0.43359-1.875-1.875-3.4766-3.6719-4.0898-11.094-3.7578-19.211-12.594-22.375-23.109 23.598 0.20312 40.957-13.266 51.047-27.199 11.309-16.098 17.355-37.352 14.336-58.84-3.5312-25.129-7.1172-41.109-10.664-54.039 3.9375 3.1289 7.9453 6.1953 12.238 8.8867 8.7227 5.4766 19.355 9.0352 30.941 5.332 5.3477-2.9766 4.957-9.043 2.2734-12.266-5.0977-5.3086-13.168-6.9023-19.055-8.8867-8.5898-2.9141-18.238-7.0938-26.398-16.355 3.9414-1.9102 7.168-4.2695 9.2656-7.8203 1.8398-3.1172 2.1055-7.3672 0.875-10.844-0.85938-2.4219-2.7344-4.5742-4.5469-6.7539 1.6211-3.0977 1.2227-5.6289 1.2227-8.5312 8.8242-6.0664 16.422-9.0664 23.773-9.5977 8.4688-0.61328 17.281 1.8555 27.973 7.2891 1.5195 0.75 3.375 0.75 4.8945 0 10.84-4.5469 22.629-10.074 33.215-10.305zm-164.33 2.4883c3.7305 0 8 1.7383 12.938 6.7539 1.8672 1.8438 5.0586 2.082 7.168 0.53125 7.6523-5.7383 12.148-7.3047 14.512-6.9336 2.3633 0.37109 5.8516 3.0586 11.188 11.199 1.3164 2.0312 4.0039 3.0156 6.293 2.3125 7.457-2.5273 11.367-1.6094 11.539-1.5977-0.039063 1.8281-0.97656 3.6289-1.3984 4.9766-1.0469 2.1211-0.60156 4.9023 1.0508 6.5781 1.8906 1.4414 4.0703 4.875 4.0195 6.5781-0.25391 1.3203-5.0742 4.0312-13.113 6.7539-0.79297 0.30078-1.5156 0.79297-2.0977 1.4219-4.9336 5.0195-9.4062 7.1055-13.637 7.6445-4.2266 0.53125-8.5352-0.51562-13.461-3.0234-1.793-0.95312-4.1016-0.8125-5.7695 0.35156-7.9141 5.3633-13.73 7.6445-19.23 7.6445s-11.316-2.2812-19.23-7.6445c-0.93359-0.60156-2.043-0.91797-3.1484-0.88672-7.7695 0-11.434-1.6016-12.41-2.8438-0.98047-1.2461-1.5117-4.6289 1.0508-12.445 0.42969-1.3945 0.30078-2.9609-0.34766-4.2656-3.2148-4.9414-3.4258-9.9609-1.2227-12.441 2.4453-1.4688 10.18-2.1328 18.531-2.1328 1.5 0 2.9883-0.66797 4.0195-1.7773 3.7227-3.9453 8.5039-6.7969 12.762-6.75zm51.57 52.973c5.2773 16.125 10.484 32.676 15.734 70.039 2.5742 18.332-2.7422 36.898-12.41 50.664-8.4219 11.992-20.012 20.297-32.516 22.219v-14.754c4.9375-1.375 9.5664-4.707 14.859-9.2422 1.9844-1.5312 2.7461-4.5 1.7422-6.8203-2.6836-3.9141-5.6602-3.7109-8.9102-1.8906-6.3984 5.4844-9.7578 7.25-12.41 7.2891-2.6562 0.054687-6.9258-1.8945-14.512-7.1094-2.4258-1.6758-6.1328-0.95703-7.7812 1.5117-1.6484 2.4648-0.94141 6.2344 1.4844 7.9102 5.3945 3.7109 9.8516 6.5508 14.336 8v15.109c-27.398-3.4961-49.691-32.715-44.754-72.883 4.7969-34.133 9.25-50.516 17.309-64.883 5.4766 2.7109 10.805 4.4453 16.258 4.4453 7.6289 0 15.055-3.2422 22.902-8.1758 5.4336 2.3242 11.051 3.7734 16.957 3.0234 3.9688-0.50391 7.9102-2.0938 11.711-4.4453zm-59.961 18.133c-4.6328 0-8.3906 5.0938-8.3906 11.379 0 6.2812 3.7578 11.379 8.3906 11.379s8.3906-5.0938 8.3906-11.379c0-6.2812-3.7578-11.379-8.3906-11.379zm50.348 0c-4.6328 0-8.3906 5.0938-8.3906 11.379 0 6.2812 3.7578 11.379 8.3906 11.379 4.6328 0 8.3906-5.0938 8.3906-11.379 0-6.2812-3.7578-11.379-8.3906-11.379z"/>
 </g>
</svg>
