<?xml version="1.0" encoding="UTF-8"?>
<svg width="700pt" height="700pt" version="1.1" viewBox="0 -50 700 700" xmlns="http://www.w3.org/2000/svg">
 <g>
  <path d="m577.5 175h-127.3c2.3047 3.9609 3.9258 8.375 4.5273 13.16l5.2891 42.289 115.32 14.414c0.71484 0.09375 1.4492 0.13672 2.168 0.13672 4.2383 0 8.375-1.5391 11.586-4.3828 3.7617-3.3164 5.9141-8.1016 5.9141-13.117v-35c0-9.6641-7.8281-17.5-17.5-17.5z"/>
  <path d="m448.8 281.8-11.434-91.473c-1.0938-8.7578-8.5469-15.328-17.363-15.328h-280c-8.8281 0-16.27 6.5703-17.363 15.328l-11.434 91.469c105.95 44.113 231.63 44.113 337.59 0.003906zm-291.38-89.301h0.17188c9.6719 0 17.5 7.8359 17.5 17.5s-7.8281 17.5-17.5 17.5c-9.6641 0-17.586-7.8359-17.586-17.5s7.75-17.5 17.414-17.5z"/>
  <path d="m280 332.5c-58.613 0-117.17-10.984-171.05-32.711l-3.8164 30.539c-0.95703 7.6562 3.2148 15.031 10.262 18.168l8.1094 3.5977c48.426 21.531 102.54 32.906 156.49 32.906s108.06-11.375 156.49-32.898l8.1172-3.6055c7.0391-3.1367 11.211-10.512 10.254-18.168l-3.8164-30.539c-53.867 21.723-112.43 32.711-171.05 32.711z"/>
 </g>
</svg>
