<?xml version="1.0" encoding="UTF-8"?>
<svg width="700pt" height="700pt" version="1.1" viewBox="0 -50 700 700" xmlns="http://www.w3.org/2000/svg" xmlns:xlink="http://www.w3.org/1999/xlink">
 <g>
  <path d="m184.21 205.57c0-2.3594 1.4219-4.4844 3.6016-5.3906 2.1797-0.90234 4.6914-0.40234 6.3594 1.2656 1.668 1.668 2.168 4.1797 1.2617 6.3594-0.90234 2.1797-3.0273 3.5977-5.3867 3.5977-3.2227 0-5.8359-2.6094-5.8359-5.832zm307.36 127.93c2.3594 0 4.4883-1.4219 5.3906-3.6016s0.40234-4.6875-1.2656-6.3555c-1.668-1.6719-4.1758-2.168-6.3555-1.2656-2.1797 0.90234-3.6016 3.0312-3.6016 5.3906 0 1.5469 0.61328 3.0273 1.707 4.1211 1.0938 1.0977 2.5781 1.7109 4.125 1.7109zm0-29.168c2.3594 0 4.4883-1.4219 5.3906-3.6016 0.90234-2.1797 0.40234-4.6875-1.2656-6.3555-1.668-1.668-4.1758-2.168-6.3555-1.2656-2.1797 0.90234-3.6016 3.0312-3.6016 5.3906 0 1.5469 0.61328 3.0312 1.707 4.125s2.5781 1.707 4.125 1.707zm-283.91 32.086c1.5469 0 3.0312-0.61719 4.125-1.7109s1.707-2.5781 1.707-4.125v-20.531c0-3.2227-2.6133-5.8359-5.832-5.8359-3.2227 0-5.8359 2.6133-5.8359 5.8359v20.535-0.003906c0 1.5469 0.61719 3.0312 1.7109 4.125s2.5781 1.7109 4.125 1.7109zm413.52 90.125c0.33984 2.3164-0.73828 4.6133-2.7422 5.832l-26.426 16.043c-11.941 7.2422-25.641 11.078-39.605 11.082h-376.25c-20.699 0.035156-40.789-7.0195-56.918-19.988-16.133-12.969-27.34-31.07-31.75-51.297l-8.6328-37.156c-0.51172-2.4688 0.61719-4.9844 2.8008-6.2422 2.0859-1.3125 4.7695-1.1719 6.707 0.35156l23.684 18.727v-0.003907c2.1719 1.707 5.0664 2.1875 7.6719 1.2773 2.6094-0.90625 4.5781-3.082 5.2188-5.7695l0.41016-1.9258c1.1875-5.0547 4.7266-9.2383 9.5156-11.246s10.254-1.5977 14.691 1.0977l0.875 0.52344c-2.5117-10.707-3.7852-21.668-3.793-32.664v-15.633c-0.082032-27.129 7.5234-53.727 21.934-76.711 0.76172-1.4297 2.082-2.4766 3.6484-2.8945 1.5625-0.41797 3.2305-0.16797 4.6016 0.69531 1.3711 0.85938 2.3242 2.25 2.6289 3.8398 0.30469 1.5898-0.0625 3.2383-1.0195 4.543-13.289 21.121-20.328 45.574-20.301 70.527v15.457c0.074219 23.992 6.6562 47.516 19.047 68.059 12.387 20.547 30.121 37.348 51.305 48.609-16.98-17.051-26.559-40.105-26.66-64.168 0-3.2227 2.6133-5.832 5.8359-5.832 3.2188 0 5.832 2.6094 5.832 5.832 0.015625 21.258 8.4609 41.641 23.488 56.68 15.027 15.035 35.402 23.496 56.66 23.527h9.6836c-15.555-8.3711-28.57-20.777-37.676-35.918-9.1055-15.141-13.965-32.457-14.066-50.121v-108.5c0.082031-17.688 4.9297-35.027 14.035-50.188 9.1055-15.164 22.133-27.59 37.707-35.973h-12.598c-27.324-0.070312-53.992 8.3711-76.301 24.152-0.97656 0.67969-2.1367 1.0469-3.3242 1.0469-2.5586 0.019531-4.8281-1.625-5.6055-4.0625-0.77344-2.4336 0.125-5.0898 2.2227-6.5547 24.285-17.129 53.289-26.301 83.008-26.25h26.66v-17.5h-0.003906c0-2.5117-2.0352-4.5469-4.5508-4.5469h-50.34l-24.148 11.668v-0.003907c-2.6445 1.5039-5.8008 1.8242-8.6914 0.875-4.7305-2.2148-8.3828-6.2266-10.152-11.141-0.019531-0.21484-0.019531-0.42969 0-0.64062-1.6328-4.7852-1.168-15.574 12.66-22.051l25.84-11.258c0.72656-0.35156 1.5273-0.53125 2.332-0.52734h69.242c7.0078 0.13672 13.809 2.375 19.527 6.4219 5.7227 4.043 10.094 9.7109 12.559 16.273l12.426 32.434h35.934l-0.003906-0.003906c37.984 0.41797 74.27 15.789 100.99 42.781 26.719 26.996 41.723 63.438 41.75 101.42v15.457c0.019531 18.793-3.6641 37.406-10.848 54.773 13.59-3.0742 27.48-4.6016 41.414-4.5469h14c3.6055 0.054688 7.0664 1.4336 9.7188 3.875 2.6562 2.4375 4.3203 5.7695 4.6797 9.3555 0.35938 3.5898-0.61328 7.1836-2.7305 10.102l-15.457 20.359c-0.80469 1.0664-1.043 2.457-0.64453 3.7305 0.41797 1.2812 1.4492 2.2656 2.7422 2.625l21.176 6.125c2.3984 0.60937 4.1523 2.668 4.375 5.1367zm-387.27 21.172c-9.1562-3.9453-17.875-8.832-26.02-14.582h-25.547c-11.469-0.035156-22.656-3.5352-32.098-10.043-9.4414-6.5039-16.695-15.715-20.812-26.414-1.1445-3.0117 0.37109-6.3828 3.3828-7.5273s6.3828 0.37109 7.5273 3.3828c3.2305 8.5391 8.9727 15.898 16.473 21.105 7.4961 5.207 16.398 8.0156 25.527 8.0625h11.023c-17.094-15.656-30.195-35.18-38.207-56.934l-11.668-7.2344c-1.2539-0.74219-2.7852-0.84766-4.1328-0.28516-1.3438 0.5625-2.3438 1.7305-2.6914 3.1445l-0.46484 1.9258h-0.003907c-1.5 6.625-6.3086 12.012-12.723 14.254-6.418 2.2383-13.531 1.0195-18.836-3.2305l-10.789-8.8086 4.7852 21.117h-0.003906c3.8828 17.648 13.691 33.438 27.801 44.73 14.105 11.293 31.656 17.41 49.727 17.336zm95.141-309.63v17.5h32.609l-10.793-28.234c-1.6953-4.3242-4.6445-8.0469-8.4688-10.688-3.8242-2.6367-8.3516-4.0742-12.996-4.1289h-68.02l-24.617 10.734c-6.5898 3.1484-6.5352 6.707-6.418 7.4648 1.9258 3.9648 3.0352 4.6094 3.1484 4.668l25.203-12.891c0.80078-0.38672 1.6797-0.58594 2.5664-0.58203h51.566c4.2891 0.015625 8.3945 1.7188 11.43 4.7461 3.0391 3.0234 4.7578 7.125 4.7891 11.41zm32.957 308.7c20.387-3.1094 38.992-13.387 52.473-28.988 13.484-15.602 20.961-35.5 21.086-56.117v-108.5c-0.023438-20.652-7.4531-40.609-20.941-56.246-13.484-15.641-32.133-25.922-52.559-28.98-4.1914-0.60547-8.4219-0.91797-12.656-0.93359-4.1016 0.003907-8.1953 0.29688-12.25 0.875-20.488 3.0156-39.215 13.281-52.777 28.93-13.562 15.652-21.059 35.645-21.133 56.355v108.5c0.10156 20.688 7.6133 40.652 21.172 56.277 13.559 15.625 32.27 25.875 52.738 28.887 4.1758 0.57812 8.3828 0.87109 12.598 0.875 4.1016-0.03125 8.1953-0.34375 12.25-0.93359zm123.73-79.273c0-3.2227 2.6094-5.832 5.832-5.832 3.2227 0 5.8359 2.6094 5.8359 5.832 0.023438 24.223-9.5664 47.469-26.66 64.633 21.254-11.301 39.031-28.172 51.426-48.805 12.391-20.637 18.934-44.258 18.926-68.328v-15.457c-0.027343-23.961-6.5547-47.465-18.879-68.008-12.328-20.543-29.996-37.359-51.121-48.66 17.039 17.148 26.602 40.344 26.598 64.516 0 3.2227-2.6094 5.8359-5.832 5.8359-3.2227 0-5.832-2.6133-5.832-5.8359 0.042969-21.332-8.4102-41.805-23.492-56.891-15.086-15.086-35.559-23.539-56.895-23.492h-9.9727c8.418 4.5234 16.141 10.242 22.926 16.977 18.383 18.324 28.691 43.227 28.641 69.184v108.5c-0.11328 17.664-4.9766 34.973-14.082 50.109-9.1016 15.137-22.109 27.551-37.66 35.93h10.09c21.258-0.03125 41.637-8.4922 56.664-23.527 15.023-15.039 23.473-35.422 23.488-56.68zm115.09 61.715-8.3398-2.4492c-4.8438-1.5039-8.6602-5.2578-10.246-10.074-1.5859-4.8164-0.74609-10.102 2.2539-14.191l15.398-20.418c0.72656-0.91406 0.85937-2.1602 0.35156-3.207-0.53516-1.0508-1.6211-1.707-2.8008-1.6914h-14.117c-16.238 0.027344-32.395 2.3047-48.008 6.7656-8.0352 14.805-18.598 28.09-31.207 39.258h23.801c8.5977-0.015625 16.836-3.4375 22.914-9.5156 6.082-6.0781 9.5039-14.32 9.5195-22.918 0-3.2188 2.6094-5.832 5.832-5.832s5.832 2.6133 5.832 5.832c-0.089844 11.641-4.7773 22.777-13.035 30.98-8.2578 8.2031-19.422 12.812-31.062 12.828h-38.734c-7.5195 5.125-15.508 9.5195-23.859 13.125h87.094c11.844-0.011719 23.465-3.2578 33.598-9.3906z"/>
 </g>
</svg>
