<?xml version="1.0" encoding="UTF-8"?>
<svg width="700pt" height="700pt" version="1.1" viewBox="0 -50 700 700" xmlns="http://www.w3.org/2000/svg" xmlns:xlink="http://www.w3.org/1999/xlink">
 <g>
  <path d="m486.86 253.94c-49.188 0-89.055 39.871-89.055 89.055 0 14.805 3.6133 28.77 10.012 41.055 14.844 28.523 44.656 48 79.039 48 34.508 0 64.434-19.633 79.219-48.34 0.1875-0.35938 0.36719-0.72656 0.54297-1.0977 5.9492-11.922 9.2852-25.379 9.2852-39.617 0.003906-49.184-39.863-89.055-89.043-89.055zm0 131.06c-23.203 0-42.016-18.809-42.016-42.012s18.812-42.012 42.016-42.012c23.199 0 42.012 18.809 42.012 42.012s-18.812 42.012-42.012 42.012z"/>
  <path d="m556 245.04c-0.78125-0.78125-1.5859-1.5352-2.3672-2.2188-9-7.9062-20.551-12.348-32.535-12.496-0.21484-0.003906-0.43359-0.003906-0.64453-0.003906h-21.344l-10.625-73.926h29.844c1.5859 0 2.875-1.2891 2.875-2.875v-27.84c0-1.5898-1.2891-2.8828-2.875-2.8828l-81.949-0.003906c-11.125 0-22.258 1.2891-33.09 3.8242l-62.137 14.551c-1.9414 0.45312-3.293 2.1602-3.293 4.1523v6.8125c0 2.3477 1.9141 4.2617 4.2617 4.2617h8.4258l-21.574 64.023h-49.816c-9.8984 0-19.793 1.1602-29.395 3.4414l-74.469 17.668c-9.3086 2.2148-15.809 10.441-15.809 20.004v30.219c1.3711-0.94141 2.7383-1.8281 4.1016-2.6406 0.46875-0.28906 0.94141-0.5625 1.4102-0.83203 0.88672-0.51562 1.7812-1.0117 2.6914-1.4883 11.961-6.3555 25.391-9.6953 39.043-9.6953 7.0273 0 13.922 0.85938 20.617 2.5664 3.6328 0.92578 7.1953 2.0938 10.695 3.5117h0.011719c0.54688 0.22266 1.082 0.44922 1.625 0.68359 3.7227 1.6016 7.3008 3.457 10.723 5.5664 0.003906-0.003906 0.011718 0 0.015624 0.003907 2.5586 1.0977 4.9453 2.6836 7.1523 4.9375 0.55078 0.41406 1.1055 0.84766 1.6445 1.2969h80.73l0.35156-0.58594 30.547-51.047 1.6367-2.75-2.6016-2.6016-4.1562-2.5547 9.6836-15.535 11.582 7.0156 4.25-7.0156-30.547-18.508-4.2539 7.0156 11.953 7.2422-9.6562 15.492-13.496-8.2969 22.625-67.141h104.05l10.625 73.926h-19.199c-2.8945 0-5.7422 0.30078-8.5273 0.89844v-4.4453c0-3.2969-2.6797-5.9766-5.9727-5.9766h-21.191c-12.551 0-22.762 10.211-22.762 22.762v19.246c-0.68359 0.68359-1.3438 1.3789-1.9844 2.0938-2.7891 3.0859-5.2617 6.457-7.3398 10.012l-17.008 28.957h-110.56c1.2344 1.3359 2.4297 2.7031 3.5664 4.1016 1.0898 1.3398 2.1328 2.707 3.1289 4.1016 9.2969 12.973 14.645 28.289 15.422 44.395 0.066407 1.3633 0.097657 2.7305 0.097657 4.1016s-0.03125 2.7383-0.097657 4.1016h23.16c-0.21484-0.96875-0.32812-1.9727-0.32812-3.0078v-27.906c0-7.6992 6.2656-13.969 13.969-13.969h53.059c0.5625 0 1.1172 0.03125 1.6641 0.10547 1.4492 0.16797 2.8281 0.5625 4.1016 1.1484 1.5352 0.69531 2.9219 1.6641 4.1016 2.8398v-6.8047l8.6562-14.738 0.003906-0.015626c2.707-5.8789 5.9727-11.434 9.7656-16.629l0.011719-0.011718 1.4492-2.4727c1.5195-2.6016 3.3203-5.0625 5.3594-7.3242 2.375-2.6289 5.0703-4.9766 8.0156-6.9766l4.6172-3.1289c3.0234-2.3281 6.1836-4.4688 9.4648-6.4219l0.066406-0.039063 12.344-8.3672c1.3516-0.91797 2.7852-1.6914 4.3047-2.3242 2.9961-1.2578 6.1758-1.8984 9.4453-1.8984h57.121l0.38281 0.003907c8.0898 0.082031 15.887 3.0742 21.984 8.4336 0.52344 0.45313 1.0547 0.95313 1.582 1.4805l16.648 16.641 11.598-11.598zm-371.18 22.191c0 2.1367-1.7266 3.8672-3.8672 3.8672h-9.707v-13.43h9.707c2.1367 0 3.8672 1.7266 3.8672 3.8672z"/>
  <path d="m385.72 333.75v27.906c0 3.1836-2.582 5.7656-5.7656 5.7656h-53.059c-0.12109 0-0.23438-0.003906-0.35547-0.011719-0.027344 0-0.054688-0.003906-0.082031-0.003906-0.085938-0.003906-0.17578-0.015625-0.26172-0.027344h-0.015625c-0.003906 0-0.011719 0-0.015625-0.003906-0.050781-0.003906-0.09375-0.011718-0.14062-0.015625-0.066406-0.011719-0.13672-0.023437-0.20312-0.03125-0.015625-0.003906-0.027344-0.003906-0.042969-0.011719-0.13672-0.027343-0.26953-0.054687-0.39453-0.09375-0.11328-0.027343-0.22266-0.066406-0.33203-0.10547-0.070313-0.023438-0.14063-0.042969-0.20313-0.070313-0.066406-0.023437-0.13281-0.050781-0.19141-0.078125-0.19141-0.078125-0.37109-0.16797-0.54688-0.26172-0.070312-0.039063-0.13672-0.078126-0.19531-0.12109-0.082031-0.050782-0.16406-0.097656-0.24219-0.15234-0.15234-0.097656-0.30078-0.20703-0.4375-0.32812-0.070312-0.054687-0.13672-0.11328-0.20312-0.17578-0.14062-0.125-0.27344-0.26172-0.39844-0.39844-0.066407-0.066406-0.125-0.13672-0.17969-0.20703-0.097656-0.12109-0.19531-0.24609-0.28516-0.37891-0.066406-0.09375-0.125-0.1875-0.17969-0.27734-0.003907-0.003906-0.011719-0.015625-0.015626-0.023437-0.058593-0.10547-0.12109-0.20703-0.17578-0.3125-0.058593-0.11328-0.12109-0.23047-0.16797-0.35156-0.050781-0.11328-0.097656-0.23047-0.14062-0.34375 0-0.003906 0-0.011719-0.003907-0.015625-0.042969-0.12109-0.082031-0.24609-0.12109-0.37109-0.027344-0.097656-0.054688-0.19531-0.078126-0.29688-0.003906-0.023437-0.011718-0.039062-0.015624-0.058593 0-0.003907-0.003907-0.015626-0.003907-0.023438-0.003906-0.015625-0.003906-0.039062-0.011719-0.054688-0.011718-0.070312-0.023437-0.14062-0.03125-0.20703-0.011718-0.066406-0.023437-0.13672-0.03125-0.20703-0.015624-0.10938-0.027343-0.22266-0.03125-0.33203-0.011718-0.13672-0.015624-0.27344-0.015624-0.41016v-27.906c0-3.1836 2.582-5.7656 5.7656-5.7656h53.059c3.168-0.003907 5.75 2.5781 5.75 5.7617z"/>
  <path d="m260.57 307.97h-0.003906c-1.3945-1.4258-2.8438-2.793-4.3477-4.1016-8.4102-7.3516-18.469-12.855-29.547-15.898-0.003906 0.003906-0.003906 0-0.011719 0-6.3477-1.7383-13.031-2.668-19.934-2.668-13.711 0-26.566 3.6641-37.637 10.086-1.8906 1.082-3.7227 2.2578-5.5078 3.5039-1.4062 0.98438-2.7734 2.0117-4.1016 3.0898-3.9961 3.2227-7.6562 6.8477-10.914 10.812-1.0977 1.3281-2.1484 2.6953-3.1484 4.1016-6.6328 9.293-11.207 20.156-13.047 31.926-0.21484 1.3516-0.38672 2.7188-0.52344 4.0977-0.25781 2.5156-0.38672 5.0703-0.38672 7.6523 0 12.512 3.0586 24.32 8.4648 34.703 12.547 24.113 37.746 40.566 66.805 40.566 29.172 0 54.457-16.594 66.961-40.855 0.16016-0.30078 0.31641-0.61328 0.46094-0.92578 4.4531-8.9297 7.1758-18.871 7.7383-29.391 0.078125-1.3555 0.11328-2.7227 0.11328-4.1016-0.007812-20.465-8.1836-39.031-21.434-52.598zm-53.848 88.109c-19.605 0-35.508-15.902-35.508-35.516 0-19.609 15.902-35.508 35.508-35.508 19.609 0 35.516 15.898 35.516 35.508 0 19.613-15.902 35.516-35.516 35.516z"/>
  <path d="m138.27 312.79c-0.93359 1.3398-1.832 2.707-2.6914 4.1016-0.82422 1.3438-1.6094 2.7109-2.3555 4.1016-1.9453 3.6211-3.625 7.3828-5.0195 11.25-1.6523 4.5625-2.9023 9.2695-3.7305 14.043-0.070312 0.42188-0.14062 0.84375-0.20703 1.2617-0.20703 1.3125-0.38281 2.6289-0.52344 3.9609-2.2539-1.5-3.7422-4.0625-3.7422-6.9688v-23.375c0-4.6172 3.7578-8.3789 8.3789-8.3789z"/>
  <path d="m217.39 360.57c0 1.7109-0.41406 3.4062-1.1992 4.918-1.8477 3.5508-5.4727 5.7461-9.4648 5.7461-3.9922 0-7.6172-2.1992-9.4609-5.7422-0.78906-1.5078-1.2031-3.2109-1.2031-4.9219 0-5.8789 4.7852-10.664 10.664-10.664 5.8867 0 10.664 4.7852 10.664 10.664z"/>
  <path d="m497.52 342.99c0 1.707-0.41016 3.4062-1.1992 4.918-1.8477 3.5508-5.4727 5.7461-9.4648 5.7461-3.9922 0-7.6172-2.2031-9.4609-5.7422-0.78906-1.5078-1.2031-3.2148-1.2031-4.9219 0-5.8789 4.7852-10.664 10.664-10.664 5.8828 0 10.664 4.7852 10.664 10.664z"/>
 </g>
</svg>
