<?xml version="1.0" encoding="UTF-8"?>
<svg width="700pt" height="700pt" version="1.1" viewBox="0 -50 700 700" xmlns="http://www.w3.org/2000/svg" xmlns:xlink="http://www.w3.org/1999/xlink">
 <g>
  <path d="m88.668 494.67v46.664c0 10.312 8.3555 18.668 18.664 18.668h485.34c10.309 0 18.664-8.3555 18.664-18.668v-46.664c-0.035156-10.766-4.7383-20.98-12.898-28 8.1602-7.0234 12.863-17.238 12.898-28v-28c-0.035156-10.766-4.7383-20.98-12.898-28 8.1602-7.0234 12.863-17.238 12.898-28v-46.668c0-10.309-8.3555-18.668-18.664-18.668h-46.668v-261.33c0-15.465-12.535-28-28-28s-28 12.535-28 28h-56v-9.332c0-5.1562-4.1797-9.3359-9.332-9.3359-5.1562 0-9.3359 4.1797-9.3359 9.3359v9.332h-18.664v-9.332c0-5.1562-4.1797-9.3359-9.3359-9.3359-5.1523 0-9.332 4.1797-9.332 9.3359v9.332h-18.668v-9.332c0-5.1562-4.1758-9.3359-9.332-9.3359s-9.332 4.1797-9.332 9.3359v9.332h-18.668v-9.332c0-5.1562-4.1797-9.3359-9.332-9.3359-5.1562 0-9.3359 4.1797-9.3359 9.3359v9.332h-18.664v-9.332c0-5.1562-4.1797-9.3359-9.3359-9.3359-5.1523 0-9.332 4.1797-9.332 9.3359v9.332h-56c0-15.465-12.535-28-28-28s-28 12.535-28 28v261.33h-46.668c-10.309 0-18.664 8.3594-18.664 18.668v46.668c0.035156 10.762 4.7383 20.977 12.898 28-8.1602 7.0195-12.863 17.234-12.898 28v28c0.035156 10.762 4.7383 20.977 12.898 28-8.1602 7.0195-12.863 17.234-12.898 28zm420-466.67c0-5.1562 4.1758-9.332 9.332-9.332s9.332 4.1758 9.332 9.332v261.33h-18.664zm-224 261.33v-65.332h130.66v18.668h-84c-5.1523 0-9.332 4.1758-9.332 9.332s4.1797 9.332 9.332 9.332h84v28zm-74.668 0v-205.33h56v9.332c0 5.1562 4.1797 9.3359 9.332 9.3359 5.1562 0 9.3359-4.1797 9.3359-9.3359v-9.332h18.664v9.332c0 5.1562 4.1797 9.3359 9.3359 9.3359 5.1523 0 9.332-4.1797 9.332-9.3359v-9.332h18.668v47.312c-37.297 4.7305-65.273 36.426-65.336 74.02v2.5977c-5.7539 3.3047-9.3125 9.4297-9.332 16.07v65.332zm130.84-139.18c0.37109 4.7812 4.3633 8.4766 9.1641 8.4766s8.793-3.6953 9.1641-8.4766c26.996 4.4766 46.805 27.812 46.836 55.176h-112c0.03125-27.363 19.84-50.699 46.836-55.176zm93.164 73.844c-0.019531-6.6406-3.5781-12.766-9.332-16.07v-2.5977c-0.0625-37.594-28.039-69.289-65.336-74.02v-47.312h18.668v9.332c0 5.1562 4.1797 9.3359 9.332 9.3359 5.1562 0 9.3359-4.1797 9.3359-9.3359v-9.332h18.664v9.332c0 5.1562 4.1797 9.3359 9.3359 9.3359 5.1523 0 9.332-4.1797 9.332-9.3359v-9.332h56v205.33h-56zm56-177.33v18.664h-56v-18.664zm-74.668 0v18.664h-18.664v-18.664zm-37.332 0v18.664h-18.668v-18.664zm-37.332 0v18.664h-18.668v-18.664zm-37.336 0v18.664h-18.664v-18.664zm-37.332 0v18.664h-56v-18.664zm-93.332-18.668c0-5.1562 4.1758-9.332 9.332-9.332s9.332 4.1758 9.332 9.332v261.33h-18.664zm-65.336 326.67v-46.668h186.67v37.332c0 5.1562 4.1797 9.3359 9.332 9.3359 5.1562 0 9.3359-4.1797 9.3359-9.3359v-37.332h177.33v37.332c0 5.1562 4.1797 9.3359 9.332 9.3359 5.1562 0 9.3359-4.1797 9.3359-9.3359v-37.332h84v46.668c0 10.309-8.3594 18.664-18.668 18.664h-448c-10.309 0-18.668-8.3555-18.668-18.664zm0 84v-28c0-10.312 8.3594-18.668 18.668-18.668h448c10.309 0 18.668 8.3555 18.668 18.668v28c0 10.309-8.3594 18.664-18.668 18.664h-177.33v-37.332c0-5.1562-4.1797-9.332-9.3359-9.332-5.1523 0-9.332 4.1758-9.332 9.332v37.332h-177.33v-37.332c0-5.1562-4.1797-9.332-9.3359-9.332-5.1523 0-9.332 4.1758-9.332 9.332v37.332h-56c-10.309 0-18.668-8.3555-18.668-18.664zm186.67 37.332v37.332c0 5.1562 4.1797 9.3359 9.332 9.3359 5.1562 0 9.3359-4.1797 9.3359-9.3359v-37.332h177.33v37.332c0 5.1562 4.1797 9.3359 9.332 9.3359 5.1562 0 9.3359-4.1797 9.3359-9.3359v-37.332h65.332c10.309 0 18.668 8.3555 18.668 18.668v46.664h-485.34v-46.664c0-10.312 8.3594-18.668 18.668-18.668z"/>
 </g>
</svg>
